<svg xmlns="http://www.w3.org/2000/svg" xml:space="preserve" width="1072.551" height="248.236" style="shape-rendering:geometricPrecision;text-rendering:geometricPrecision;image-rendering:optimizeQuality;fill-rule:evenodd;clip-rule:evenodd" viewBox="0 0 28378.04 6567.95"><defs><style>.fil1,.fil4{fill:#000;fill-rule:nonzero}.fil4{fill:#4dac2f}.fil0,.fil2,.fil3{fill:#fe120a;fill-rule:nonzero}.fil0,.fil3{fill:#fff}</style></defs><g id="Ebene_x0020_1"><path d="M25407.82 5051.19c-70.45-33.18-99.39-86.99-87.04-161.53l634.07-1734.1h-317.04c-66.42 0-113.94 31.04-142.99 93.19l-640.13 1765.18 18.63 24.91c-49.73 140.79-149.18 211.35-298.4 211.35h-795.48c-62.18 0-105.72-16.64-130.64-49.73l-12.5-12.56-80.72-124.2c-8.32-4.14-15.49-9.32-21.67-15.59-6.27-6.29-13.66-13.46-21.88-21.73-37.16-37.26-39.3-97.31-6.08-180.26l111.87-310.8h-304.57c-74.6 0-122.34-16.49-143.06-49.73l-86.99-130.49c-70.56-29.05-84.95-97.3-43.44-205.12l1149.89-3169.9c57.73-144.97 159.39-217.52 304.57-217.52h1528.91c111.94 0 167.85 41.5 167.85 124.27l86.99 130.5c20.67 37.27 18.74 87.08-6.18 149.21l-354.3 975.89h2150.6c115.94 0 174.04 45.6 174.04 136.68l80.82 124.34c24.8 37.27 24.8 87.07 0 149.19l-876.46 2405.39 12.37 18.69c-62.08 178-161.54 267.24-298.15 267.24h-1522.88c-74.64 0-124.35-22.92-149.16-68.4l-80.83-124.37z" class="fil0"/><path d="M25392.27 5084.13c-42.44-19.99-72.82-46.98-91.11-80.93-18.41-34.18-23.83-73.99-16.32-119.39l71.88 11.7c-4.82 29.12-1.95 53.53 8.62 73.17 10.69 19.85 30.04 36.39 58.03 49.57z" class="fil1"/><path d="m25286.55 4877.25 616.18-1685.18h-264.92v-73.02h369.15l-651.95 1783.02z" class="fil1"/><path d="M25637.81 3192.07c-26.11 0-48 5.77-65.69 17.3-17.99 11.74-32.78 30-44.36 54.78l-65.88-30.8c17.46-37.36 41-65.71 70.6-85.02 29.93-19.51 65.03-29.28 105.33-29.28z" class="fil1"/><path d="m25529.05 3261.16-633.41 1746.62 6.91 9.24-58.48 43.64-30.36-40.59 646.88-1783.73z" class="fil1"/><path d="M24907.68 5050.96c-27.39 77.56-69.19 136.27-125.34 176.04-56.16 39.78-125.32 59.7-207.43 59.7v-73.02c67.06 0 122.23-15.35 165.51-46 43.33-30.69 76.18-77.7 98.52-140.96zM24574.91 5286.7h-795.48v-73.02h795.48zM23779.43 5286.7c-35.48 0-66.23-4.96-92.23-14.86-28.2-10.74-50.72-27.28-67.5-49.56l58.18-43.64c8.14 10.81 19.91 19.17 35.28 25.02 17.53 6.67 39.63 10.02 66.27 10.02z" class="fil1"/><path d="m23622.98 5226.13-12.5-12.56-4.71-5.85-80.72-124.2 61.04-39.64 78.63 120.98 9.88 9.93z" class="fil1"/><path d="M23539.31 5096.36c-5.51-2.74-11.06-6.13-16.63-10.14-5.39-3.87-10.31-8.07-14.74-12.58l-21.73-21.59c-25.29-25.36-38.66-57.92-39.99-97.6-1.19-35.09 7.44-75.74 25.92-121.88l67.6 27.1c-14.71 36.72-21.62 67.57-20.78 92.5.68 20.44 7 36.64 18.87 48.54 7.31 7.26 14.63 14.72 22.03 21.87 1.73 1.76 3.51 3.3 5.32 4.6 1.63 1.18 3.86 2.48 6.65 3.86z" class="fil1"/><path d="m23471.71 4833.85 94.31-262.02h-252.78v-73.02h356.35l-129.42 359.58z" class="fil1"/><path d="M23313.24 4571.83c-41.07 0-75.61-4.84-103.57-14.54-32.07-11.13-55.58-28.6-70.44-52.45l61.9-38.5c5.85 9.38 16.61 16.79 32.22 22.21 19.73 6.85 46.38 10.26 79.89 10.26z" class="fil1"/><path d="m23139.8 4505.7-86.99-130.49 60.76-40.22 86.99 130.49z" class="fil1"/><path d="M23069.36 4388.76c-47.15-19.4-75.68-52.49-85.57-99.26-8.67-41.03-1.31-91.87 22.02-152.5l67.88 25.96c-18.15 47.17-24.36 84.41-18.6 111.7 4.56 21.55 18.54 37.16 41.93 46.78z" class="fil1"/><path d="M23005.52 4137.57 24155.4 967.66l68.46 24.82-1149.88 3169.91z" class="fil1"/><path d="M24155.83 966.66c31.52-79.16 75.6-138.97 132.16-179.36 57.16-40.83 125.95-61.26 206.21-61.26v73.02c-64.92 0-119.61 15.87-163.99 47.56-44.97 32.12-80.59 81.09-106.78 146.86zM24494.2 726.04h1528.91v73.02H24494.2zM26023.11 726.04c63.85 0 113.06 12.8 147.56 38.35 37.86 28.04 56.8 68.87 56.8 122.43h-73.02c0-29.22-9.06-50.56-27.14-63.95-21.42-15.86-56.16-23.81-104.2-23.81z" class="fil1"/><path d="m26221.34 866.71 86.99 130.5-60.76 40.22-86.99-130.5z" class="fil1"/><path d="M26309.75 999.64c13.66 24.64 19.87 52.84 18.57 84.5-1.2 29.08-8.78 61.09-22.75 95.94l-67.6-27.1c10.89-27.17 16.76-51.09 17.61-71.7.75-18.16-2.41-33.61-9.43-46.28z" class="fil1"/><path d="m26306 1178.95-336.54 926.97h2098.61v73.02h-2202.6l372.07-1024.81z" class="fil1"/><path d="M28068.07 2105.92c66.33 0 117.38 14.03 153.03 42.03 38.33 30.1 57.52 73.83 57.52 131.16h-73.02c0-33.74-9.86-58.35-29.56-73.82-22.35-17.56-58.37-26.35-107.97-26.35z" class="fil1"/><path d="m28272.63 2259.29 80.82 124.34-61.04 39.64-80.82-124.34z" class="fil1"/><path d="M28353.31 2383.34c16.48 24.76 24.73 53.25 24.73 85.39 0 29.28-7.11 61.75-21.31 97.32l-67.6-26.82c10.58-26.52 15.89-50.05 15.89-70.5 0-17.61-4.16-32.69-12.47-45.17z" class="fil1"/><path d="m28357.16 2565.05-870.18 2388.17 2.24 3.39-4.59 3.04-3.93 10.79-7.99-2.9-44.25 29.29-22.5-33.99 882.74-2422.61z" class="fil1"/><path d="M27493.21 4988.7c-33.09 94.87-76.87 166.74-131.28 215.51-56.69 50.82-123.8 76.26-201.24 76.26v-73.02c59.12 0 110.06-19.17 152.76-57.44 44.99-40.33 82.02-102.12 111.02-185.27zM27160.68 5280.47h-1522.87v-73.02h1522.87z" class="fil1"/><path d="M25637.81 5280.47c-42.39 0-78.51-6.87-108.32-20.53-32.23-14.79-56.51-37.15-72.79-66.98l63.9-34.8c8.55 15.67 21.61 27.56 39.13 35.6 19.88 9.11 45.91 13.69 78.08 13.69z" class="fil1"/><path d="m25458.13 5195.38-80.83-124.37 61.04-39.64 80.83 124.37z" class="fil1"/><path d="m24674.42 4852.41 646.35-1790.15c41.4-99.36 113.9-149.26 217.58-149.26h416.49c111.85 0 146.93 49.9 105.68 149.26l-658.88 1808.78c-4.23 37.31 6.17 68.3 31.09 93.16 24.81 24.92 59.87 37.33 105.62 37.33h1522.83c99.5 0 167.87-51.78 205.12-155.3h-18.73l901.21-2480.05c41.4-99.48 6.17-149.19-105.63-149.19h-2249.94c-99.5 0-132.63-39.4-99.5-118.04l404.08-1118.88c37.25-95.29 3.98-142.92-99.5-142.92h-1529.02c-99.43 0-167.85 47.63-205.12 142.92l-1149.88 3169.9c-37.27 95.47-4.24 142.99 99.45 142.99h410.19c103.47 0 136.77 53.92 99.4 161.54l-142.85 391.72c-20.78 62.12-20.78 103.52 0 124.26 12.46 24.75 45.53 37.25 99.39 37.25h795.6c111.91 0 186.43-51.81 223.76-155.33h-24.81z" class="fil2"/><path d="m24640.19 4840.14 646.36-1790.15 68.46 24.54-646.36 1790.15z" class="fil1"/><path d="M25287.12 3048.28c23.47-56.34 56.36-99.06 98.62-128.04 42.47-29.14 93.36-43.75 152.62-43.75v73.02c-44.35 0-81.54 10.33-111.54 30.91-30.29 20.78-54.44 52.75-72.38 95.82zM25538.36 2876.49h416.49v73.02h-416.49z" class="fil1"/><path d="M25954.85 2876.49c36.53 0 66.8 4.99 90.76 14.93 21.95 9.1 38.8 22.34 50.47 39.63 11.78 17.46 17.67 37.98 17.67 61.55 0 24.35-6.53 52.24-19.56 83.64l-67.32-27.96c9.23-22.24 13.86-40.82 13.86-55.68 0-8.78-1.71-15.73-5.11-20.77-3.51-5.21-9.52-9.59-17.97-13.09-14.81-6.14-35.76-9.23-62.8-9.23z" class="fil1"/><path d="m26094.76 3074.67-658.88 1808.78-68.46-24.82 658.88-1808.78z" class="fil1"/><path d="M25437.87 4875.03c-1.52 13.46-.55 25.37 2.9 35.71 3.36 10.06 9.26 19.29 17.64 27.65l.14.14c8.44 8.48 18.87 14.93 31.27 19.31 13.53 4.78 29.72 7.18 48.54 7.18v73.02q-40.365 0-72.78-11.46c-22.7-8.03-42.18-20.21-58.51-36.57l-.14-.14c-16.46-16.46-28.2-35.14-35.18-56.03-6.9-20.68-9.01-42.95-6.32-66.79zM25538.36 4965.02h1522.82v73.02h-1522.82z" class="fil1"/><path d="M27061.18 4965.02c41.64 0 76.29-10.47 103.94-31.41 28.48-21.56 50.81-54.8 66.95-99.65l68.46 24.54c-21.11 58.65-51.61 103.11-91.49 133.29-40.72 30.83-90.01 46.25-147.86 46.25z" class="fil1"/><path d="M27266.3 4882.74h-70.74l919-2528.97 68.46 24.82-901.22 2480.05-15.5-5.62z" class="fil1"/><path d="M28115.13 2352.2c15.58-37.43 18.45-63.1 8.64-76.96-10.26-14.49-37.14-21.74-80.61-21.74v-73.02c68.32 0 114.98 17.62 139.93 52.84 25.38 35.85 25.17 84.81-.64 146.84zM28043.16 2253.5h-2249.94v-73.02h2249.94zM25793.22 2253.5c-35.64 0-64.92-4.82-87.75-14.44-19.36-8.15-34.22-19.68-44.55-34.51-10.76-15.44-16.14-33.45-16.14-53.99h.14c.01-19.64 5.11-41.57 15.28-65.73l67.04 28.24c-6.38 15.15-9.58 27.67-9.58 37.49h.14c0 5.34 1.01 9.47 3.02 12.35 2.41 3.46 6.72 6.51 12.89 9.11 13.38 5.63 33.23 8.46 59.51 8.46z" class="fil1"/><path d="m25659.49 2086.68 404.08-1118.88 68.46 24.54-404.08 1118.88z" class="fil1"/><path d="M26063.86 966.81c8.12-20.78 12.19-38.23 12.19-52.3 0-8.89-1.7-15.81-5.07-20.73-3.39-4.94-9.28-9.07-17.62-12.32-13.28-5.19-31.66-7.8-55.06-7.8v-73.02c32.33 0 59.54 4.32 81.58 12.94 22.26 8.69 39.36 21.74 51.28 39.12 11.94 17.39 17.91 38.01 17.91 61.81 0 22.99-5.79 49.27-17.33 78.82zM25998.3 873.66h-1529.02v-73.02h1529.02zM24469.28 873.66c-42.12 0-77.16 9.74-105.07 29.18-28.14 19.61-50.2 49.79-66.11 90.49l-67.88-26.52c21.33-54.55 52.14-95.85 92.35-123.87 40.47-28.2 89.39-42.3 146.71-42.3z" class="fil1"/><path d="m24298.39 992.48-1149.87 3169.91-68.46-24.82 1149.87-3169.91z" class="fil1"/><path d="M23148.23 4163.24c-13.9 35.63-16.28 60.04-7.12 73.22 9.27 13.34 33.49 20 72.63 20v73.02c-64.53 0-108.7-17.11-132.53-51.38-23.94-34.44-24.21-81.55-.86-141.38zM23213.74 4256.46h410.19v73.02h-410.19z" class="fil1"/><path d="M23623.93 4256.46c27.63 0 51.67 3.56 72.12 10.66 25.56 8.87 45.13 23.19 58.67 42.94 13.29 19.36 19.95 42.82 19.95 70.29 0 24.74-5.66 53.42-16.97 86l-68.74-23.68c8.46-24.36 12.69-45.15 12.69-62.32 0-12.56-2.38-22.31-7.11-29.21-4.49-6.54-11.99-11.65-22.45-15.28-12.24-4.25-28.3-6.38-48.16-6.38z" class="fil1"/><path d="m23757.56 4466.92-142.85 391.72-68.46-24.82 142.85-391.72z" class="fil1"/><path d="M23614.99 4857.78c-9.05 27.06-13.58 49.11-13.58 66.1 0 10.71 1.59 17.65 4.74 20.8l6.85 9.41c1.99 3.96 6.8 7.39 14.41 10.24 12.23 4.58 29.73 6.9 52.46 6.9v73.02c-31.05 0-57.02-3.94-77.84-11.74-23.5-8.8-40.62-22.38-51.37-40.66-14.84-17.12-22.27-39.78-22.27-67.97 0-24.42 5.86-54.16 17.58-89.2zM23679.87 4971.23h795.6v73.02h-795.6zM24475.47 4971.23c48.41 0 88.11-10.75 119.08-32.21 30.96-21.62 54.48-54.57 70.45-98.88l68.46 24.54c-21.33 59.19-53.79 103.93-97.32 134.17h-.14c-43.58 30.26-97.08 45.4-160.53 45.4z" class="fil1"/><path d="M24699.23 4888.92h-24.81v-73.02h24.81z" class="fil1"/><path d="m21921.89 1835.43 126.77-347.31c51.35-128.67 145.2-192.98 281.28-192.98h2960.52c99.14 0 148.86 36.75 148.86 110.27l77.06 115.74c18.52 33.1 16.58 77.21-5.45 132.33l-126.88 352.82c-44.06 125.01-128.59 187.49-253.54 187.49h-1995.66c-58.94 0-99.35 31.29-121.33 93.77l-755.4 2072.93h1918.75c99.13 0 148.64 38.53 148.64 115.68l71.82 115.79c-3.77 0-4.66-.84-2.78-2.74 1.82-1.78.84-2.81-2.83-2.81l5.61 5.55c18.31 29.41 16.58 75.41-5.61 137.86l-126.66 352.78c-44.12 121.33-128.71 181.99-253.75 181.99H20411.3c-66.19 0-110.33-16.65-132.31-49.62l-71.61-115.78c-73.68-22.14-90.23-80.81-49.71-176.39l1019.97-2811.68c47.69-132.41 143.36-198.56 286.67-198.56h352.83c55.12 0 90.03-25.63 104.74-77.13z" class="fil0"/><path d="m21887.66 1823.02 126.77-347.31 68.46 24.82-126.77 347.31z" class="fil1"/><path d="M22014.86 1474.71c28.44-71.27 69.17-125.09 122.1-161.4 53.12-36.45 117.48-54.68 192.98-54.68v73.02c-60.59 0-111.26 13.95-151.9 41.84-40.81 27.99-72.7 70.69-95.58 128.04zM22329.94 1258.63h2960.53v73.02h-2960.53zM25290.47 1258.63c57.49 0 101.96 11.62 133.31 34.85 34.68 25.69 52.06 63.01 52.06 111.93h-73.02c0-24.57-7.48-42.4-22.4-53.45-18.27-13.53-48.29-20.31-89.95-20.31z" class="fil1"/><path d="m25469.71 1385.3 77.06 115.74-60.76 40.22-77.06-115.74z" class="fil1"/><path d="M25548.19 1503.32c12.59 22.51 18.26 48.25 17.05 77.17-1.09 26.28-7.95 55.15-20.5 86.54l-67.6-27.1c9.48-23.71 14.62-44.51 15.36-62.3.63-15.17-2-28.08-7.91-38.65z" class="fil1"/><path d="m25545.17 1665.75-126.88 352.82-68.46-24.54 126.88-352.82z" class="fil1"/><path d="M25418.43 2018.42c-24.48 69.47-60.87 122.06-109.12 157.74-48.81 36.09-108.41 54.14-178.79 54.14v-73.02c54.58 0 99.74-13.21 135.43-39.6 36.25-26.8 64.17-67.98 83.74-123.5zM25130.52 2230.3h-1995.66v-73.02h1995.66zM23134.86 2230.3c-21.27 0-38.71 5.26-52.27 15.75-14.53 11.24-26.11 29.08-34.69 53.49l-68.74-23.96c13.39-38.06 33.05-67.13 58.93-87.15 26.83-20.75 59.1-31.15 96.77-31.15z" class="fil1"/><path d="m23047.76 2299.97-737.58 2024.01h1866.69V4397h-1970.81l773.24-2121.85zM24176.87 4323.98c57.74 0 102.35 12.23 133.81 36.7l.07-.09c34.18 26.6 51.27 65.14 51.27 115.58H24289c0-26.69-7.69-46.02-23.03-57.96v-.14c-18.04-14.05-47.75-21.07-89.1-21.07z" class="fil1"/><path d="m24356.46 4457.06 71.82 115.79-61.9 38.22-71.82-115.79z" class="fil1"/><path d="M24397.33 4628.47c-11.64 0-21.21-3.55-29.04-11.21-17.86-17.45-17.69-35.37.45-53.71l.42-.43c.73-.71.78-.44.39.41l22.17 22.78v-36.41c5.98 0 11.56 1.12 16.47 3.1l.28.14c8.12 3.34 14.52 9.07 18.53 16.09 5.61 9.81 6.51 20.56 2.74 31.13l-.14.14c-1.95 5.38-5.17 10.43-9.66 14.82-5.66 5.15-9.6-1.64-11.56-11.88l-11.05-11.36zm-23.6-16.74 17.99-18.29v-4.03l-25.78 14.75-.22 1.23c2.04 1.34 5.09 3.78 8.01 6.34m23.6-24.05 3.44-3.44 6.41-3.67.3-3.16-6.71 6.83-.42.24 7.19-7.52c.7-5.57 2.02-10.17 4.02-12.49l-6.54-2.93-7.69 18.71v5.95l3.02-1.72zm7.69-26.14-.21-.1-7.48 18.81zm-.21-.1c-3.17-1.54-5.99-3.11-7.48-4.26v22.91zm-7.48 24.76v1.43zm0 1.53v1.06l9.75 3.48c-.21-3.95-.18-7.96.1-11.7zm0 1.06 9.76 3.55zm0 .01v3.18l10.95 10.9c-.6-3.28-1-6.88-1.19-10.54zm-28.05-24.71 22.44 22.32-22.17-22.88zm38.2 13.32.06-.45zm-15.76 16.09-17.69 18.49c3.1 2.72 6 5.52 7.3 7.2l10.39-25.28zm0-7.09-22.44-22.32c-1.29 2.54-4.74 7.96-6.76 10.67.28.33.56.93.84 1.72l28.36 10.29zm-28.3-9.73c1.88 5.8 3.31 21.38 2.52 27.48l25.78-14.75v-2.62zm18.12 42.79.51.92c2.65.41 8.12 1.63 9.67 2.21v-28.52z" class="fil1"/><path d="m24417.39 4560.6 5.61 5.55-51.34 51.62-5.61-5.55z" class="fil1"/><path d="M24428.28 4572.71c13.08 21.01 19.04 46.83 17.8 77.34-1.09 26.75-7.75 57.41-19.99 91.89l-68.74-24.24c9.88-27.84 15.21-51.36 15.99-70.51.63-15.52-1.71-27.54-6.96-35.98z" class="fil1"/><path d="m24425.95 4742.09-126.66 352.78-68.46-24.54 126.66-352.78z" class="fil1"/><path d="M24299.29 5095.01c-24.66 67.81-61.17 119.07-109.51 153.74-48.65 34.89-108.16 52.35-178.47 52.35v-73.02c54.71 0 100.06-12.9 135.97-38.65 36.24-25.99 64.1-65.75 83.55-119.24zM24011.31 5301.1H20411.3v-73.02h3600.01zM20411.3 5301.1c-37.21 0-69.03-4.97-95.36-14.84-29.61-11.11-52.07-28.15-67.33-51.04l60.76-40.5c6.72 10.09 17.4 17.9 31.95 23.36 17.75 6.65 41.09 10 69.98 10z" class="fil1"/><path d="m20248.04 5234.08-71.61-115.78 61.9-38.22 71.61 115.78z" class="fil1"/><path d="M20196.97 5134.13c-49.65-14.92-80.44-43.49-92.35-85.75-10.56-37.5-4.05-84.07 19.53-139.7l67.04 28.24c-16.92 39.93-22.4 70.52-16.41 91.78 4.64 16.47 18.99 28.33 43.01 35.55z" class="fil1"/><path d="m20123.44 4910.39 1019.98-2811.68 68.46 24.82-1019.98 2811.68z" class="fil1"/><path d="M21143.42 2098.85c26.49-73.56 66.85-129.1 120.99-166.58 54.1-37.47 120.76-56.22 199.91-56.22v73.02c-64.2 0-117.07 14.37-158.55 43.1-41.39 28.66-72.71 72.4-93.89 131.22zM21464.32 1876.05h352.83v73.02h-352.83zM21817.15 1876.05c19.66 0 35-4.04 45.98-12.12 10.7-7.87 18.61-20.71 23.68-38.48l70.16 19.96c-9.62 33.71-26.55 59.47-50.76 77.28-23.9 17.59-53.61 26.38-89.06 26.38z" class="fil1"/><path d="M21442.23 1978.77c-99.24 0-165.45 44.05-198.37 132.29l-1019.97 2806.13c-29.47 88.26 3.56 132.33 99.24 132.33h3599.99c91.86 0 154.41-44.07 187.53-132.33l126.78-352.78c33.03-91.96 3.56-137.9-88.19-137.9h-1995.79c-91.75 0-121.22-42.09-88.19-126.73l788.36-2177.72c40.41-95.55 104.74-143.29 192.94-143.29h1995.77c91.91 0 154.4-45.92 187.49-137.86l126.71-352.79c33.18-84.52 3.62-126.88-88.19-126.88h-2960.59c-95.58 0-159.84 42.36-192.87 126.88l-126.77 347.31c-33.23 95.61-97.4 143.34-192.98 143.34h-352.89z" class="fil2"/><path d="M21442.23 2015.28c-42.42 0-77.06 8.94-103.84 26.8v.15c-26.63 17.75-46.8 44.94-60.44 81.52l-68.18-25.38c19.25-51.6 48.64-90.58 88.12-116.9l.07.1c39.33-26.21 87.44-39.31 144.27-39.31z" class="fil1"/><path d="M21278.09 2123.47 20258.11 4929.6l-68.46-24.82 1019.98-2806.13z" class="fil1"/><path d="M20258.39 4928.74c-10.7 32.07-11.61 54.05-2.73 65.89 9.18 12.24 31.67 18.38 67.46 18.38v73.02c-59.89 0-101.78-15.93-125.64-47.76-24.16-32.23-26.86-76.45-8.11-132.63zM20323.12 5013.01h3599.99v73.02h-3599.99zM23923.11 5013.01c38.3 0 69.93-8.8 94.86-26.38 25.16-17.75 44.7-45.14 58.58-82.13l68.18 25.38c-19.23 51.23-47.52 90.04-84.84 116.37-37.59 26.52-83.2 39.78-136.78 39.78z" class="fil1"/><path d="m24076.41 4904.92 126.78-352.78 68.46 24.54-126.78 352.78z" class="fil1"/><path d="M24203.19 4552.14c7.2-20.07 10.82-37.09 10.82-51.02 0-9.29-1.64-16.32-4.89-21.05-3.24-4.72-8.82-8.5-16.65-11.31-10.64-3.82-25.07-5.74-43.24-5.74V4390c26.08 0 48.68 3.44 67.78 10.3 22.65 8.13 40.01 20.94 52.01 38.41 12 17.46 18.01 38.27 18.01 62.41 0 21.82-5.14 47.03-15.38 75.56z" class="fil1"/><path d="M24149.23 4463.02h-1995.79V4390h1995.79zM22153.44 4463.02c-58.53 0-98.84-15.75-120.84-47.31-22.08-31.7-22.52-74.76-1.29-129.19l67.88 26.52c-11.77 30.19-14 50.53-6.69 61.03 7.4 10.62 27.74 15.93 60.94 15.93z" class="fil1"/><path d="m22031.02 4287.37 788.36-2177.72 68.46 24.82-788.36 2177.72z" class="fil1"/><path d="M22820.09 2107.94c22.79-53.91 52.94-94.79 90.38-122.59 38.68-28.72 84.05-43.09 136.08-43.09v73.02c-36.18 0-67.1 9.53-92.72 28.55-26.86 19.94-49.11 50.74-66.7 92.35zM23046.56 1942.26h1995.76v73.02h-1995.76z" class="fil1"/><path d="M25042.32 1942.26c38.06 0 69.5-9.12 94.26-27.32 25.32-18.61 45-47.39 59-86.3l68.46 24.54c-19.07 53.02-47.21 93.19-84.38 120.52-37.7 27.72-83.49 41.58-137.34 41.58zM25195.59 1828.64l126.71-352.79 68.46 24.54-126.71 352.79z" class="fil1"/><path d="M25322.59 1474.86c7.06-17.99 10.6-33.01 10.6-44.99 0-7.02-1.26-12.38-3.75-16.02-2.53-3.7-7.1-6.85-13.65-9.42-11.33-4.45-27.16-6.68-47.45-6.68v-73.02c29.24 0 53.92 3.94 73.97 11.82 20.5 8.04 36.29 20.13 47.31 36.22 11.05 16.14 16.59 35.18 16.59 57.1 0 20.93-5.25 44.78-15.74 71.51z" class="fil1"/><path d="M25268.34 1397.75h-2960.6v-73.02h2960.6zM22307.74 1397.75c-40.66 0-73.97 8.54-99.89 25.59-25.62 16.85-45.31 42.89-59.04 78.04l-67.88-26.52c19.29-49.37 48.29-86.82 86.98-112.28 38.34-25.22 84.97-37.85 139.83-37.85z" class="fil1"/><path d="m22149.1 1500.53-126.77 347.31-68.46-24.82 126.77-347.31z" class="fil1"/><path d="M22022.47 1847.41c-19.05 54.82-47.63 96.43-85.8 124.78-38.65 28.73-85.84 43.09-141.55 43.09v-73.02c39.85 0 72.59-9.52 98.19-28.55 26.13-19.4 46.26-49.51 60.42-90.26zM21795.12 2015.28h-352.89v-73.02h352.89zM17414.14 5122.77c-41.55-18.08-66.26-49.27-74.07-93.51-6.68-37.8.37-84.77 21.1-140.84l68.46 25.1c-16.19 43.79-22.09 78.2-17.68 103.18 3.27 18.56 13.72 31.68 31.29 39.33z" class="fil1"/><path d="m17361.17 4888.56 1020.13-2816.07 68.46 24.82-1020.13 2816.07z" class="fil1"/><path d="M17428.69 5089.41c-59.14-25.75-70.24-88.57-33.29-188.44l1020.13-2816.07c55.23-140.31 153.21-210.62 293.74-210.62h354.71c51.79 0 84.96-24 99.77-72.04l127.55-343.69c44.29-136.69 138.56-205.12 282.71-205.12h2982.34c99.82 0 149.65 38.8 149.65 116.43l77.57 116.4c18.53 29.6 16.7 75.74-5.49 138.64l-809.25 2211.82c-44.45 121.9-131.32 182.82-260.61 182.82h-1990.01c-66.64 0-109.14 27.75-127.67 83.17l-88.62 249.47h1274.95c103.37 0 155.24 38.88 155.24 116.45l72.07 116.41c22.2 33.25 22.2 75.78 0 127.45l-127.39 354.72c-44.45 125.67-133.17 188.64-266.22 188.64h-2976.8c-66.52 0-108.97-14.93-127.39-44.49zm2932.54-2050.99 321.38-881.44h-282.6c-66.52 0-110.92 31.49-133.06 94.22l-316.03 853.69h299.38c59.06 0 96.01-22.1 110.93-66.47" class="fil3"/><path d="M19435.42 3936.43c29.56-88.67 96.09-133.05 199.57-133.05h1990.02c96.1 0 158.96-44.28 188.54-132.95l809.34-2211.83c29.63-92.43 0-138.59-88.82-138.59h-2982.2c-99.86 0-164.56 46.16-194.03 138.59l-127.55 343.64c-33.24 92.4-96.2 138.55-188.54 138.55h-354.7c-96.21 0-164.47 48.1-205.08 144.15l-1020.03 2816.03c-18.62 44.44-22.2 78.62-11.15 102.6 11.15 24.02 42.45 36 94.37 36h2976.76c99.82 0 166.35-46.11 199.57-138.6l127.57-354.86c29.46-84.9-3.83-127.42-99.82-127.42h-1341.56c-99.82 0-132.96-44.26-99.82-133zm960.75-1779.47h286.44c-108.31 296.95-216.61 593.9-324.91 890.85-15.88 36.65-52.28 57.11-104.47 57.11h-302.46c107.15-289.06 214.3-578.11 321.44-867.17 19.01-48.11 65.19-80.79 123.96-80.79" class="fil2"/><path d="M18381.59 2071.64c30.28-76.93 72.84-135.08 127.59-174.34 55.32-39.67 122.04-59.53 200.09-59.53v73.02c-62.46 0-115.01 15.3-157.59 45.83-43.17 30.96-77.27 78.17-102.21 141.54zM18709.28 1837.77h354.71v73.02h-354.71zM19063.99 1837.77c18.17 0 32.34-3.68 42.5-11.02 9.96-7.19 17.46-18.95 22.48-35.22l69.6 21.4c-9.79 31.76-26.32 56.06-49.58 72.86-23.06 16.66-51.39 25-85 25z" class="fil1"/><path d="m19129.54 1789.54 127.54-343.68 68.46 25.38-127.54 343.68z" class="fil1"/><path d="M19256.65 1447.43c24.62-75.98 63.7-133.41 117.19-172.23 53.54-38.84 120.28-58.28 200.18-58.28v73.02c-64.23 0-116.71 14.78-157.4 44.3-40.75 29.57-70.98 74.73-90.65 135.43zM19574.02 1216.92h2982.34v73.02h-2982.34zM22556.36 1216.92c58.23 0 103.12 12.28 134.65 36.8 34.33 26.72 51.51 65.44 51.51 116.14h-73.02c0-26.94-7.77-46.46-23.27-58.52-18.34-14.26-48.3-21.4-89.87-21.4z" class="fil1"/><path d="m22736.39 1349.75 77.58 116.41-60.76 40.22-77.58-116.41z" class="fil1"/><path d="M22814.4 1467.02c13.25 21.17 19.28 47.02 18.08 77.5-1.07 26.86-7.74 57.7-20.02 92.5l-68.74-24.24c9.91-28.09 15.26-51.8 16.02-71.12.61-15.68-1.71-27.75-6.96-36.14z" class="fil1"/><path d="m22812.32 1637.31-809.26 2211.82-68.46-24.82 809.26-2211.82zM22003.06 3849.13c-24.85 68.18-62.13 119.72-111.75 154.53-49.79 34.93-110.83 52.4-183.08 52.4v-73.02c57.04 0 104.11-13 141.16-39 37.22-26.11 65.64-66.03 85.21-119.73zM21708.23 4056.06h-1990.01v-73.02h1990.01zM19718.22 4056.06c-26.23 0-46.92 4.95-62.05 14.81-14.15 9.22-24.53 23.7-31.11 43.39l-69.02-23.1c11.94-35.71 32.12-62.84 60.49-81.33 27.38-17.84 61.28-26.79 101.69-26.79z" class="fil1"/><path d="m19624.92 4114.83-71.35 200.84h1223.3v73.02h-1326.59l105.9-298.1zM20776.87 4315.67c59.63 0 105.74 12.2 138.21 36.56 35.67 26.76 53.54 65.58 53.54 116.41h-73.02c0-26.74-8.07-46.16-24.16-58.23-19.29-14.47-50.84-21.72-94.57-21.72z" class="fil1"/><path d="m20963.06 4449.53 72.08 116.4-61.9 38.22-72.08-116.4z" class="fil1"/><path d="M21034.42 4564.79c15.28 22.89 22.93 48.6 22.93 77.07 0 26.2-6.55 54.58-19.64 85.04l-67.04-28.8c9.1-21.18 13.66-39.95 13.66-56.24 0-14.02-3.46-26.22-10.37-36.57z" class="fil1"/><path d="m21038.42 4724.77-127.39 354.71-68.46-24.54 127.39-354.71z" class="fil1"/><path d="M20911.17 5079.33c-24.73 69.95-62.49 122.96-113.22 158.93-50.75 36.07-113.25 54.09-187.37 54.09v-73.02c58.87 0 107.28-13.45 145.2-40.32h.15c37.95-26.89 66.8-68.23 86.5-123.92zM20610.57 5292.35h-2976.8v-73.02h2976.8zM17633.77 5292.35c-37.12 0-68.35-4.44-93.65-13.27-29.39-10.27-50.98-26.45-64.7-48.47l61.9-38.5c4.7 7.55 13.64 13.65 26.76 18.23 17.14 5.98 40.38 8.99 69.69 8.99z" class="fil1"/><path d="m17475.71 5230.9-77.68-121.96 61.32-39.08 77.68 121.96zM19400.91 3925.02c17.43-52.31 46.23-91.86 86.33-118.6v-.15c39.39-26.26 88.66-39.4 147.75-39.4v73.02c-44.36 0-80.11 9.05-107.25 27.14l-.07-.1c-26.37 17.61-45.64 44.59-57.74 80.91zM19634.99 3766.87h1990.03v73.02h-1990.03zM21625.02 3766.87c40.41 0 73.17-8.85 98.25-26.53 24.92-17.56 43.52-44.74 55.77-81.46l69.02 23.1c-17.32 51.91-44.96 91.26-82.87 117.98-37.75 26.62-84.48 39.93-140.17 39.93z" class="fil1"/><path d="m21779.32 3658.02 809.34-2211.83 68.46 24.82-809.34 2211.83z" class="fil1"/><path d="M22588.23 1447.48c11.31-35.29 12.65-59.69 4.01-73.16-7.6-11.86-27.01-17.8-58.17-17.8v-73.02c57.65 0 97.49 17.16 119.49 51.46 20.97 32.7 22.3 77.63 3.99 134.76zM22534.07 1356.52h-2982.2v-73.02h2982.2zM19551.87 1356.52c-42.25 0-76.37 9.27-102.3 27.78-25.78 18.4-44.82 46.84-57.07 85.28l-69.32-21.96c17.21-53.99 45.29-94.88 84.17-122.64 38.73-27.65 86.92-41.48 144.52-41.48z" class="fil1"/><path d="m19392.07 1471.29-127.54 343.63-68.46-25.38 127.54-343.63z" class="fil1"/><path d="M19264.53 1814.5c-19.15 53.24-47.44 93.59-84.77 121.01-37.9 27.86-83.93 41.79-138.01 41.79v-73.02c38.29 0 69.96-9.18 94.93-27.53 25.49-18.73 45.32-47.67 59.39-86.79zM19041.75 1977.3h-354.71v-73.02h354.71zM18687.04 1977.3c-40.47 0-74.61 9.8-102.42 29.36-28.53 20.07-51.58 50.88-69.13 92.4l-67.04-28.24c23.06-54.53 54.47-95.81 94.25-123.78 40.51-28.5 88.62-42.76 144.34-42.76z" class="fil1"/><path d="m18516.19 2097.35-1020.03 2816.03-68.46-24.82 1020.03-2816.03z" class="fil1"/><path d="M17495.59 4914.95c-7.97 19.01-12.67 35.25-14.12 48.71-1.14 10.49-.34 18.72 2.35 24.66 1.43 2.95 5.36 5.69 11.84 8.16 11.47 4.38 27.96 6.58 49.48 6.58v73.02c-30.38 0-55.53-3.81-75.44-11.42-24.92-9.51-42.24-24.81-52.01-45.84v-.14c-8.32-18.08-11.24-39.01-8.66-62.72 2.24-20.66 8.64-43.68 19.24-68.97zM17545.14 5003.06h2976.77v73.02h-2976.77zM20521.91 5003.06c42.42 0 77.13-9.35 104.08-28.06 26.86-18.64 47.3-47.42 61.26-86.3l68.46 24.54c-19.24 53.59-48.72 94.15-88.36 121.66-39.56 27.46-88.05 41.18-145.44 41.18zM20687.25 4888.7l127.57-354.87 68.46 24.54-127.56 354.87z" class="fil1"/><path d="M20814.68 4534.26c5.49-15.81 8.23-29.47 8.23-40.94 0-8.69-1.65-15.3-4.92-19.79-3.51-4.81-9.76-8.79-18.73-11.9-12.31-4.28-28.99-6.42-50.02-6.42v-73.02c28.64 0 53.27 3.58 73.84 10.7h.14c23.14 8.04 41 20.67 53.53 37.86 12.77 17.51 19.18 38.39 19.18 62.57 0 19.04-4.17 40.59-12.51 64.62zM20749.24 4455.21h-1341.57v-73.02h1341.57zM19407.67 4455.21c-61.94 0-104.89-15.97-128.85-47.92-24.58-32.77-26.24-77.54-5.05-134.28l68.18 25.38c-11.93 31.96-13.6 53.73-4.95 65.26 9.27 12.36 32.82 18.54 70.67 18.54z" class="fil1"/><path d="m19273.63 4273.29 127.56-349.27 68.46 24.82-127.56 349.27z" class="fil1"/><path d="M14034.78 1963.49h272.17c97.5 0 146.5 43.62 146.5 130.77l62.7 99.42c21.04 34.9 24.4 75.04 10.53 120.25l-967.99 2657.7c-41.82 118.61-125.46 177.86-251.03 177.86h-1271.37c-66.21 0-104.59-13.91-115.06-41.78l-78.45-109.9c-55.79-24.39-68.05-81.86-36.63-172.67l946.84-2594.85h-271.96c-55.8 0-90.76 20.91-104.63 62.74l-973.08 2678.6c-41.81 115.16-123.84 172.68-245.94 172.68H9896.52c-66.32 0-109.77-15.71-130.71-47.01l-68.03-109.92c-62.81-27.89-76.68-85.37-41.83-172.62l1182.36-3243.64c41.81-129.01 130.74-193.56 266.73-193.56h2809.47c97.62 0 142.94 38.44 136.09 115.07l73.12 104.6c21.04 31.48 21.04 75.03 0 130.83z" class="fil0"/><path d="M14034.78 1926.98h272.18V2000h-272.18z" class="fil1"/><path d="M14306.96 1926.98c57.86 0 102.55 14.03 134.01 42.08l.07-.08c32.59 29.08 48.93 70.86 48.93 125.28h-73.02c0-32.69-8.15-56.31-24.39-70.8v-.14c-17.41-15.54-45.97-23.32-85.6-23.32z" class="fil1"/><path d="m14484.27 2074.86 62.7 99.42-61.62 38.8-62.7-99.42z" class="fil1"/><path d="M14547.39 2174.85c13.44 22.28 21.25 46.26 23.48 71.82 2.15 24.61-1 50.63-9.38 77.96l-69.6-21.4c5.5-17.94 7.6-34.72 6.24-50.28-1.26-14.42-5.65-27.93-13.2-40.44z" class="fil1"/><path d="m14560.92 2326.34-968 2657.7-68.46-24.82 968-2657.7z" class="fil1"/><path d="M13593.06 4983.75c-23.46 66.54-59.27 116.87-107.37 150.95-48.27 34.2-107.62 51.3-178.03 51.3v-73.02c55.15 0 100.44-12.54 135.81-37.6 35.53-25.17 62.5-63.81 80.85-115.87z" class="fil1"/><path d="M13307.66 5186H12036.3v-73.02h1271.36z" class="fil1"/><path d="M12036.3 5186c-37.19 0-67.48-4.24-90.84-12.72-29.66-10.76-49.13-28.39-58.31-52.88l68.18-25.38c1.26 3.37 6.27 6.65 14.95 9.8 14.98 5.43 37 8.16 66.02 8.16z" class="fil1"/><path d="m11891.57 5128.82-78.45-109.9 59.32-42.22 78.45 109.9z" class="fil1"/><path d="M11828.23 5031.18c-39.37-17.2-63.43-46.29-72.12-87.24-7.48-35.24-2.26-78.79 15.67-130.64l68.74 23.68c-13.47 38.95-17.84 69.57-13.11 91.84 3.51 16.57 13.5 28.45 29.92 35.62z" class="fil1"/><path d="m11771.92 4812.73 929-2545.93h-219.88v-73.02h324.05l-964.71 2643.77z" class="fil1"/><path d="M12481.04 2266.8c-21.32 0-37.81 3.48-49.38 10.42-9.61 5.76-16.49 14.85-20.59 27.22l-69.32-22.82c9.75-29.42 27.29-51.73 52.55-66.86 23.31-13.98 52.25-20.98 86.74-20.98z" class="fil1"/><path d="m12410.64 2305.44-973.09 2678.6-68.46-24.82 973.09-2678.6z" class="fil1"/><path d="M11437.55 4984.04c-23.52 64.8-58.91 113.77-106.1 146.91-47.36 33.24-105.41 49.87-174.07 49.87v-73.02c53.45 0 97.51-12.16 132.15-36.47 34.75-24.4 61.29-61.79 79.56-112.11z" class="fil1"/><path d="M11157.38 5180.82H9896.53v-73.02h1260.85zM9896.53 5180.82c-37.12 0-68.67-4.7-94.64-14.05-29.33-10.56-51.43-26.99-66.3-49.22l60.46-40.5c6.05 9.05 16.19 16.15 30.38 21.26 17.54 6.31 40.91 9.49 70.1 9.49z" class="fil1"/><path d="m9734.86 5116.41-68.03-109.92 61.9-38.22 68.03 109.92z" class="fil1"/><path d="M9683.09 5020.61c-42.39-18.81-68.47-48.4-78.22-88.72-8.77-36.24-3-79.76 17.28-130.54l67.6 26.82c-14.56 36.46-19.28 65.35-14.14 86.6 4.16 17.19 16.45 30.33 36.86 39.38z" class="fil1"/><path d="m9621.72 4802.35 1182.36-3243.64 68.46 24.82-1182.36 3243.64z" class="fil1"/><path d="M10803.65 1560c23.38-72.15 60.5-126.69 111.32-163.56 50.87-36.91 114.24-55.39 190.07-55.39v73.02c-60.14 0-109.25 13.81-147.29 41.41-38.08 27.63-66.36 69.91-84.78 126.76zM11105.04 1341.05h2809.47v73.02h-2809.47zM13914.51 1341.05c9.81 0 20.21.49 31.18 1.47 44.44 3.97 78.78 17.04 102.94 39.11 26.1 23.85 39.15 56.01 39.15 96.4 0 4.62-.32 10.53-.96 17.74l-72.44-6.28c.25-2.84.38-6.71.38-11.46 0-19.24-5.07-33.53-15.19-42.78-12.03-11-32.12-17.79-60.16-20.29-6.64-.59-14.97-.89-24.9-.89z" class="fil1"/><path d="m14080.41 1471.81 73.12 104.6-59.62 41.64-73.12-104.6z" class="fil1"/><path d="M14153.95 1576.98c14.7 21.99 22.06 47.52 22.06 76.54 0 26.08-6.08 55.22-18.2 87.38l-68.18-25.68c8.9-23.61 13.36-44.2 13.36-61.7 0-14.54-3.17-26.57-9.5-36.04z" class="fil1"/><path d="m14157.81 1740.9-88.94 235.43-68.18-25.68 88.94-235.43z" class="fil1"/><path d="M14380.19 2157.05c13.87-38.35 11.13-69.78-7.92-94.2-19.26-24.34-47.89-36.6-86.36-36.6h-345.38c-86.99 0-114.95-45.3-83.54-135.99l120.39-319.14c27.74-87.24 0-130.78-83.75-130.78h-2809.37c-94.27 0-155.41 43.54-183.24 130.78L9718.73 4814.76c-31.41 83.7 0 125.46 94.06 125.46h1260.94c90.57 0 151.69-41.76 183.1-125.46l972.97-2678.65c24.5-73.26 80.29-109.86 167.5-109.86h361.04c87.11 0 115.04 43.7 83.64 130.8l-973.08 2668.13c-27.94 80.3 0 120.39 83.66 120.39h1271.37c94.16 0 156.97-43.65 188.37-130.81z" class="fil4"/><path d="M14345.96 2144.64c5.06-14 7.13-26.3 6.25-36.86-.72-8.59-3.61-16.13-8.61-22.54-5.67-7.16-12.86-12.61-21.57-16.3-9.68-4.11-21.71-6.18-36.12-6.18v-73.02c24.06 0 45.6 4.07 64.64 12.16 19.98 8.48 36.71 21.31 50.24 38.42l.15.14c14.06 18.03 22.1 38.49 24.01 61.34 1.74 20.79-1.74 43.37-10.53 67.66z" class="fil1"/><path d="M14285.91 2062.76h-345.39v-73.02h345.39zM13940.52 2062.76c-23.69 0-44.47-3.1-62.32-9.27-22.82-7.89-40.3-20.68-52.39-38.3-11.86-17.29-17.81-38.12-17.81-62.44 0-21.41 4.87-46.21 14.61-74.33l68.74 23.68c-6.89 19.88-10.33 36.78-10.33 50.65 0 9.41 1.66 16.54 4.97 21.36 3.08 4.49 8.39 8.05 15.89 10.64 9.61 3.32 22.49 4.99 38.64 4.99z" class="fil1"/><path d="m13822.89 1877.42 120.39-319.14 68.18 25.68-120.39 319.14z" class="fil1"/><path d="M13942.71 1560.14c10.43-32.81 11.76-55.36 3.93-67.59-6.68-10.46-24.36-15.7-53.02-15.7v-73.02c55.07 0 93.18 16.54 114.34 49.64 20.04 31.33 21.37 74.22 4.07 128.63z" class="fil1"/><path d="M13893.62 1476.85h-2809.37v-73.02h2809.37zM11084.25 1476.85c-39.48 0-71.32 8.62-95.46 25.85-23.97 17.11-41.7 43.59-53.12 79.4l-69.32-21.96c16.38-51.36 43.15-90.3 80.22-116.76 36.94-26.37 82.86-39.55 137.68-39.55z" class="fil1"/><path d="M10935.24 1583.53 9752.95 4827.17l-68.46-24.82 1182.29-3243.64z" class="fil1"/><path d="M9752.81 4827.45c-11.05 29.46-12.72 49.35-5.02 59.61 8.32 11.1 30.01 16.65 64.99 16.65v73.02c-59.07 0-100.15-15.34-123.17-46.03-23.66-31.52-25.33-74.42-4.98-128.63zM9812.78 4903.71h1260.94v73.02H9812.78z" class="fil1"/><path d="M6597.5 4942.11c-34.77-10.3-53.75-29.31-57.22-57.05l5.24-5.23c-17.37-27.63-17.37-67.42 0-119.34l960.05-2631.01c20.82-55.37 59.71-101.26 116.71-137.55 57.21-36.3 108.14-54.55 153.2-54.55h342.48c48.41 0 79.55-24.04 93.38-72.58l119.43-316.67c41.46-127.9 129.8-191.93 264.69-191.93h2797.12c62.3 0 98.72 19.08 108.88 57.04 13.76 13.94 20.83 34.69 20.83 62.37l57 88.15c0 3.45 1.82 7 5.29 10.38 6.96 13.83 12.97 28.61 18.11 44.21 5.18 15.49 2.55 37.21-7.7 64.8l-965.28 2651.87c-17.22 48.51-51.03 89.07-101.23 121.95-50.15 32.92-99.44 49.3-147.86 49.3H10038c-55.34 0-93.28 27.74-114.06 83.07L9804.5 4916.2c-41.46 117.57-121.12 176.5-238.67 176.5H6758.28c-44.95 0-74.42-12.24-88.19-36.38zm1930.34-710.9h295.79c34.7 0 58.93-17.27 72.8-51.91l721.31-1977.16h-254.31c-62.18 0-103.8 27.74-124.58 82.99z" class="fil3"/><path d="M11073.72 4903.71c37.86 0 68.96-8.32 93.24-24.95 24.19-16.59 42.81-42.16 55.77-76.69l68.18 25.38c-18.43 49.11-46.09 86.28-82.87 111.49-36.78 25.19-81.57 37.79-134.32 37.79z" class="fil1"/><path d="m11222.59 4802.35 972.98-2678.65 68.46 24.82-972.98 2678.65z" class="fil1"/><path d="M12195.29 2124.56c14.94-44.68 39.88-78.49 74.77-101.37 33.99-22.3 76.41-33.45 127.24-33.45v73.02c-36.38 0-65.49 7.16-87.3 21.47-20.89 13.7-36.14 34.86-45.69 63.43z" class="fil1"/><path d="M12397.3 1989.74h361.04v73.02h-361.04zM12758.34 1989.74c25 0 46.69 3.32 65.03 9.92 21.78 7.85 38.52 20.3 50.19 37.29h.14c11.49 16.74 17.26 36.77 17.26 60.06 0 20.93-4.92 45.05-14.75 72.31l-68.46-24.54c6.79-18.84 10.19-34.77 10.19-47.77 0-8.36-1.48-14.7-4.42-18.98l.09-.06c-2.76-4.01-7.71-7.3-14.78-9.85-9.9-3.56-23.41-5.36-40.49-5.36z" class="fil1"/><path d="m12876.21 2169.46-973.09 2668.13-68.46-24.82 973.09-2668.13z" class="fil1"/><path d="M11903.26 4837.16c-9.87 28.39-11.35 47.57-4.44 57.51 6.66 9.58 24.6 14.39 53.73 14.39v73.02c-54.52 0-92.41-15.26-113.63-45.77-20.98-30.17-22.45-71.22-4.4-123.11zM11952.55 4909.06h1271.37v73.02h-1271.37zM13223.92 4909.06c39.53 0 71.86-8.71 96.94-26.08 25.09-17.53 44.19-44.35 57.2-80.49l68.46 24.54c-18.38 51.03-46.43 89.63-84.07 115.78h-.14c-37.69 26.17-83.84 39.27-138.39 39.27z" class="fil1"/><path d="m13378.06 4802.35 967.9-2657.71 68.46 24.82-967.9 2657.71zM6587.09 5033.9c-23.18-6.9-41.72-17.29-55.6-31.14-15.53-15.48-24.67-34.29-27.43-56.43l72.44-8.84c.69 5.58 2.82 10.15 6.33 13.65 5.15 5.14 13.53 9.44 25.08 12.88z" class="fil1"/><path d="m6514.47 4916.1 5.24-5.24 51.62 51.62-5.24 5.24z" class="fil1"/><path d="M6514.71 4956.07c-12.48-19.86-18.74-43.18-18.74-69.96 0-23.6 5.02-50.39 15.04-80.33l69.02 23.1c-7.35 21.98-11.04 41.07-11.04 57.23 0 12.99 2.45 23.39 7.34 31.16z" class="fil1"/><path d="m6511.29 4804.92 960.05-2631.02 68.46 24.82-960.05 2631.02z" class="fil1"/><path d="M7471.48 2173.47c11.9-31.62 28.93-60.51 51.09-86.62 21.73-25.62 48.46-48.55 80.17-68.76v-.15c30.73-19.49 60.22-34.31 88.45-44.39 29.47-10.57 57.58-15.85 84.29-15.85v73.02c-18.34 0-38.26 3.85-59.77 11.52h-.15c-22.75 8.11-47.34 20.58-73.74 37.32l-.07-.11c-25.22 16.08-46.42 34.25-63.56 54.46-16.75 19.73-29.6 41.5-38.53 65.24zM7775.49 1957.7h342.48v73.02h-342.48zM8117.97 1957.7c15.99 0 28.48-3.46 37.41-10.39 9.17-7.11 16.14-19.01 20.89-35.67l70.16 19.96c-9.08 31.86-24.61 56.3-46.55 73.33-22.19 17.21-49.51 25.79-81.91 25.79z" class="fil1"/><path d="m8177.26 1908.78 119.43-316.64 68.18 25.68-119.43 316.64z" class="fil1"/><path d="M8296.12 1593.86c23.21-71.59 60.1-125.72 110.58-162.32 50.54-36.66 113.5-55.01 188.77-55.01v73.02c-59.6 0-108.29 13.69-145.99 41.03-37.76 27.37-65.8 69.24-84.04 125.52z" class="fil1"/><path d="M8595.47 1376.53h2797.12v73.02H8595.47zM11392.59 1376.53c36.93 0 67.24 6.2 90.83 18.56 24.82 13 41.7 31.94 50.55 56.79 7.52 9.37 13.4 20.3 17.58 32.79 4.83 14.3 7.26 30.24 7.26 47.77h-73.02c0-10.06-1.08-18.29-3.22-24.68v-.14c-1.63-4.91-4.01-8.93-7.06-12.02l-6.79-6.87-2.48-9.25c-2.34-8.75-7.86-15.41-16.48-19.93-12.7-6.66-31.79-10-57.17-10z" class="fil1"/><path d="m11552.82 1512.62 57 88.13-61.04 39.64-57-88.13z" class="fil1"/><path d="m11615.36 1620.57-1.36-4.44-8.81 4.44zm-1.36-4.44c-.67-2.54-1.29-5.37-1.41-6.64l-14.46 7.39-3.55 3.69h10.61zm-1.41-6.64-.01-.51-2.84-4.17-11.61 12.07-7.22 3.69h3.67zm-64.32 32.87c-3.64-7.13-5.48-14.46-5.48-21.79h48.12zm61.47-37.55c-.1-.21-.09-.26.09-.09l7.28 9.84c3.76 7.46 7.36 15.43 10.79 23.8v.14c3.91 9.56 7.05 17.96 9.46 25.28 4.22 13.01 5.4 27.55 3.5 43.51-1.6 13.45-5.54 28.61-11.78 45.37l-68.18-25.38c4.03-10.83 6.55-20.37 7.52-28.55.66-5.53.58-9.55-.23-11.99l-.15-.14c-2.75-8.36-5.24-15.29-7.41-20.6a323 323 0 0 0-6.59-14.66 54 54 0 0 1-5.77-8.98z" class="fil1"/><path d="m11629.22 1752.38-965.26 2651.88-68.46-24.82 965.26-2651.88z" class="fil1"/><path d="M10664.1 4403.97c-10.03 28.2-24.94 54.18-44.68 77.94-19.36 23.29-43.03 44.09-70.95 62.41l-.06-.1c-27.65 18.15-55.33 31.82-82.98 41.03-28.68 9.56-56.96 14.32-84.79 14.32v-73.02c20.64 0 41.3-3.43 61.97-10.32 21.53-7.17 43.53-18.11 65.92-32.81v-.14c22.24-14.59 40.61-30.56 54.99-47.87 14.01-16.86 24.64-35.43 31.84-55.68z" class="fil1"/><path d="m7567.86 2129.48-960.05 2631.01c-6.97 20.83-10.42 39.84-10.42 57.1 0 17.33 5.23 29.47 15.6 36.28 3.35 24.18 24.18 36.37 62.34 36.37h2807.38c86.56 0 145.41-43.18 176.6-129.75l119.32-326.87c31.11-86.47 89.94-129.75 176.41-129.75h342.47c38.04 0 75.31-11.16 111.58-33.76 36.43-22.46 61.45-52.7 75.32-90.81l965.28-2651.82c6.8-20.78 8.53-37.2 5.19-49.37-3.56-12.05-8.76-21.58-15.61-28.46 0-20.75-22.56-31.19-67.52-31.19H8574.63c-93.38 0-153.93 43.39-181.68 129.75l-119.29 316.59c-31.09 90.08-89.92 134.99-176.48 134.99h-342.53c-31.08 0-65.74 12.13-103.79 36.25-38.11 24.15-65.73 55.48-83 93.44m1786.98 72.19 263.26-.03c-240.91 660.19-481.82 1320.4-722.73 1980.59-15.71 37.36-42.22 46.81-67.28 48.95h-300.37c237.36-650 474.72-1300.01 712.09-1950.01 20.79-51.5 59.29-79.48 115.03-79.5" class="fil4"/><path d="M10380.64 4599.57h-342.63v-73.02h342.63zM10038.01 4599.57c-19.92 0-36.13 4.57-48.6 13.66-13.03 9.5-23.5 24.77-31.37 45.73l-68.18-25.68c12.89-34.33 31.82-60.62 56.77-78.81 25.51-18.59 55.97-27.92 91.38-27.92z" class="fil1"/><path d="m9958.18 4658.53-119.44 326.88-68.47-24.82 119.45-326.88z" class="fil1"/><path d="M9838.88 4985.12c-23.18 65.75-57.71 115.6-103.49 149.45-46.33 34.26-102.89 51.43-169.55 51.43v-73.02c50.87 0 92.96-12.31 126.19-36.89 33.78-24.98 59.85-63.42 78.11-115.21zM9565.83 5186H6758.29v-73.02h2807.54zM6758.29 5186c-27.07 0-50.3-4-69.59-11.95-22.46-9.24-39.24-23.58-50.27-42.91l63.32-35.94c2.73 4.79 7.62 8.66 14.61 11.53 10.09 4.16 24.09 6.25 41.93 6.25z" class="fil1"/><path d="m6639.28 5132.71-72.59-114.21 61.62-39.08 72.59 114.21zM11415.04 1516.21c2.64-8.09 4.27-14.89 4.84-20.35.34-3.3.37-5.82.08-7.48-1.01-3.4-2.23-6.4-3.61-8.93-1-1.82-1.97-3.21-2.88-4.13l-10.7-10.73v-6.77c-6.8-1.89-17.15-2.85-31.01-2.85v-73.02c27.71 0 49.69 3.76 65.87 11.23 20.27 9.35 32.48 23.23 36.59 41.59q3.27 4.56 6.03 9.6c3.82 6.97 7.04 14.82 9.58 23.47l.14.71c2.88 10.52 3.66 22.1 2.35 34.73-1.16 10.96-3.82 22.8-7.96 35.47zM11371.76 1454.97H8574.64v-73.02h2797.12zM8574.64 1454.97c-38.97 0-70.42 8.56-94.29 25.61-23.72 16.94-41.31 43.22-52.72 78.75l-69.32-22.24c16.34-50.85 42.96-89.51 79.82-115.83 36.65-26.17 82.17-39.31 136.51-39.31z" class="fil1"/><path d="m8427.06 1561.05-119.3 316.59-68.18-25.68 119.3-316.59z" class="fil1"/><path d="M8308.18 1876.64c-17.92 51.94-44.54 91.41-79.83 118.38-36 27.52-79.73 41.28-131.16 41.28v-73.02c35.13 0 64.13-8.72 86.94-26.16 23.52-17.98 41.88-46.04 55.03-84.16zM8097.19 2036.3h-342.53v-73.02h342.53z" class="fil1"/><path d="M7754.66 2036.3c-11.62 0-24.06 2.32-37.26 6.93-14.61 5.1-30.31 12.97-47.03 23.56-16.29 10.41-30.13 22-41.45 34.75v.14a170 170 0 0 0-27.82 42.78l-66.46-29.94c10.21-22.47 23.48-42.96 39.8-61.32 16.31-18.22 35.27-34.27 56.89-47.97h.14c21.29-13.48 41.98-23.76 61.97-30.74 21.36-7.46 41.79-11.21 61.22-11.21z" class="fil1"/><path d="m7602.09 2141.9-960.05 2631-68.46-24.82 960.05-2631z" class="fil1"/><path d="M6642.32 4772.04c-2.96 8.84-5.14 17.11-6.53 24.76v.14c-1.26 6.9-1.89 13.8-1.89 20.65 0 3.11.22 5.44.66 6.94l12.28 8.06 2.24 16.29c.04.33.2.59.44.73 4.68 2.76 13.31 4.12 25.81 4.12v73.02c-25.54 0-46.4-4.73-62.47-14.1h-.14c-16.11-9.4-26.94-22.48-32.46-39.18-5.16-5.6-9.32-12.07-12.48-19.4-4.58-10.67-6.9-22.86-6.9-36.48 0-10.4 1.1-21.68 3.31-33.77 2.08-11.31 5.12-22.96 9.11-34.88zM6675.33 4853.73h2807.38v73.02H6675.33zM9482.71 4853.73c35.39 0 64.58-8.42 87.53-25.28 23.5-17.26 41.79-44.01 54.84-80.23l68.46 24.54c-18.14 50.35-44.88 88.49-80.22 114.45-35.9 26.37-79.45 39.54-130.61 39.54z" class="fil1"/><path d="M9628.12 1999.79c79.55 0 107.19 36.25 83 108.95L8958.67 4179.3c-27.63 76.15-79.56 114.1-155.72 114.1h-498.18l788.9-2163.92c31.08-86.45 93.26-129.69 186.79-129.69zM8527.83 4231.21h295.79c34.7 0 58.93-17.27 72.8-51.91l721.31-1977.16h-254.31c-62.18 0-103.8 27.74-124.58 82.99z" class="fil3"/><path d="m9625.08 4748.08 119.33-326.87 68.46 24.82-119.33 326.87z" class="fil1"/><path d="M9744.41 4421.35c18.08-50.28 44.8-88.44 80.13-114.42 35.85-26.36 79.36-39.57 130.5-39.57v73.02c-35.34 0-64.49 8.45-87.42 25.31-23.47 17.26-41.74 44.01-54.75 80.2zM9955.05 4267.36h342.47v73.02h-342.47z" class="fil1"/><path d="M10297.52 4267.36c15.5 0 30.88-2.29 46.06-6.88 15.57-4.7 31.02-11.82 46.26-21.32h.14c14.65-9.03 27.04-19.66 37.14-31.84 9.93-11.98 17.63-25.48 23.07-40.43l68.46 24.82c-8.43 23.14-20.2 43.86-35.33 62.11-14.96 18.03-33.29 33.77-55.02 47.18-20.86 13.08-42.11 22.86-63.62 29.36-22.12 6.7-44.53 10.02-67.16 10.02z" class="fil1"/><path d="m10450.19 4166.89 965.28-2651.82 68.46 24.82-965.28 2651.82zM9628.12 1963.28c51.75 0 88.21 13.86 109.35 41.61 21.58 28.32 24.29 66.75 8.16 115.26l-69.02-22.82c8.04-24.17 9.02-40.26 2.96-48.22-6.5-8.54-23.67-12.81-51.45-12.81z" class="fil1"/><path d="M9745.35 2121.15 8992.9 4191.71l-68.46-24.82 752.45-2070.56z" class="fil1"/><path d="M8992.9 4191.71c-16.34 45.04-40.48 79.24-72.35 102.58-32.45 23.75-71.66 35.62-117.6 35.62v-73.02c30.21 0 55.07-7.13 74.52-21.36 20.02-14.66 35.69-37.55 46.97-68.64z" class="fil1"/><path d="M8802.95 4329.91h-550.24l806.72-2212.83 68.46 24.82-771.06 2114.99h446.12z" class="fil1"/><path d="M9059.43 2117.22c18.2-50.65 46.01-88.99 83.39-114.95 37.42-25.98 83.29-38.99 137.64-38.99v73.02c-39.18 0-71.18 8.63-96 25.87-24.84 17.25-43.71 43.8-56.57 79.59zM9280.46 1963.28h347.66v73.02h-347.66zM8527.85 4194.71h295.77v73.02h-295.77z" class="fil1"/><path d="M19862.2 3171.47c-95.99 0-129.28-44.3-99.71-133.05l343.73-953.48c40.51-96.09 108.98-144.15 204.97-144.15h366.02c103.31 0 134.78 48.06 94.26 144.15l-343.84 953.48c-29.55 88.75-96.09 133.05-199.57 133.05zm499.03-133.05 321.38-881.44h-282.6c-66.52 0-110.92 31.49-133.06 94.22l-316.03 853.69h299.38c59.06 0 96.01-22.1 110.93-66.47" class="fil3"/><path d="m17361.17 4888.56 1020.13-2816.07 68.46 24.82-1020.13 2816.07zM8823.62 4194.71c9.68 0 17.39-2.04 23.11-6.12 6.3-4.49 11.61-12.11 15.9-22.84l67.6 27.1c-9.58 23.91-23.34 42.27-41.28 55.06-18.53 13.22-40.32 19.82-65.33 19.82z" class="fil1"/><path d="m8862.2 4166.89 703.46-1928.24h-202.23v-73.02h306.39l-739.16 2026.08z" class="fil1"/><path d="M9363.43 2238.65c-23.81 0-43.07 4.89-57.7 14.64-14.21 9.46-25.16 24.38-32.79 44.68l-68.18-25.68c13.13-34.94 33.41-61.56 60.75-79.76 26.88-17.91 59.56-26.9 97.92-26.9z" class="fil1"/><path d="m9273.08 2297.54-711 1946.09-68.46-24.82 711-1946.09zM19862.2 3207.98c-60.03 0-102.06-15.99-126.03-47.94-24.22-32.31-26.96-76.66-8.19-133.03l69.02 22.82c-10.77 32.36-11.65 54.56-2.65 66.57 9.27 12.36 31.91 18.56 67.85 18.56z" class="fil1"/><path d="m19728.26 3026.15 343.72-953.48 68.46 24.54-343.72 953.48z" class="fil1"/><path d="M20072.69 2070.82c22.98-54.52 54.43-95.8 94.21-123.78 40.54-28.5 88.66-42.76 144.28-42.76v73.02c-40.39 0-74.54 9.8-102.36 29.36-28.52 20.06-51.59 50.88-69.09 92.4zM20311.18 1904.28h366.03v73.02h-366.03z" class="fil1"/><path d="M20677.21 1904.28c33.41 0 61.3 4.72 83.62 14.13 20.77 8.75 36.68 21.46 47.66 38.06 11.06 16.7 16.6 36.3 16.6 58.74 0 24.11-6.7 52.09-20.1 83.85l-67.04-28.24c9.41-22.31 14.12-40.87 14.12-55.61 0-7.97-1.45-14.16-4.34-18.52-2.96-4.48-8.03-8.25-15.14-11.24-12.88-5.43-31.35-8.15-55.38-8.15z" class="fil1"/><path d="m20805.71 2097.21-343.84 953.48-68.46-24.54 343.83-953.48z" class="fil1"/><path d="M20462.15 3049.83c-17.45 52.38-46.29 91.99-86.47 118.77-39.4 26.25-88.61 39.38-147.62 39.38v-73.02c44.46 0 80.28-9.05 107.4-27.12 26.33-17.55 45.57-44.51 57.67-80.83zM20228.06 3207.98h-365.86v-73.02h365.86z" class="fil1"/><path d="m20327 3026.01 303.53-832.51H20400v-73.02h334.66l-339.2 930.35z" class="fil1"/><path d="M20400 2193.5c-25.72 0-46.47 5.59-62.19 16.72-15.76 11.16-27.94 28.89-36.48 53.1l-68.74-24.24c13.59-38.51 34.7-67.93 63.3-88.18 28.62-20.26 63.34-30.42 104.11-30.42z" class="fil1"/><path d="m20301.19 2263.75-297.87 804.63h246.98v73.02h-351.77l334.2-902.75z" class="fil1"/><path d="M20250.3 3068.38c22.95 0 40.74-3.78 53.34-11.32 10.78-6.45 18.49-16.53 23.08-30.19l69.02 23.1c-10.32 30.69-28.58 53.88-54.74 69.55-24.36 14.58-54.6 21.88-90.7 21.88z" class="fil1"/><path d="M18224.91 2148.39h1396c208.69 0 348.96-107.38 420.61-322.17l134.26-366.88c35.75-95.35 38.68-166.89 8.74-214.73l-116.26-187.94c-11.92-119.28-95.45-179-250.5-179h-474.2l107.35-259.48c35.75-89.51 38.68-157.97 8.89-205.85l-125.36-187.88c0-125.25-86.46-187.94-259.4-187.94h-4769.5c-220.92 0-373.01 104.5-456.45 313.13l-429.51 1199.14-35.75 62.63c-53.75 149.26-26.86 241.69 80.39 277.5l116.47 187.92c29.67 47.84 92.43 71.56 187.9 71.56h1252.93l-1369.18 3776.29c-53.76 155.13-23.98 253.54 89.35 295.3l107.4 179.01c35.85 53.64 101.27 80.5 196.85 80.5h2147.66c220.63 0 366.92-98.45 438.51-295.32l1431.7-3928.35c23.87-71.67 77.47-107.43 161.11-107.43z" class="fil0"/><path d="M18224.91 2111.88h1396v73.02h-1396zM19620.91 2111.88c96.19 0 176.08-24.34 239.61-72.99 64.19-49.17 113.04-123.93 146.49-224.22l69.02 23.1c-38.18 114.45-95.29 200.8-171.29 259.02-76.7 58.74-171.33 88.11-283.83 88.11z" class="fil1"/><path d="m20007.29 1813.81 134.26-366.88 68.46 24.82-134.26 366.88z" class="fil1"/><path d="M20141.69 1446.65c16.51-44.04 25.43-82.02 26.72-113.92 1.15-28.26-3.8-51.23-14.84-68.87l61.9-38.5c18.88 30.17 27.44 66.92 25.68 110.23-1.6 39.64-12.04 85.13-31.28 136.44z" class="fil1"/><path d="m20153.57 1263.72-116.26-187.95 61.9-38.22 116.26 187.95z" class="fil1"/><path d="M20032.04 1060.23c-4.86-48.65-23.7-84.73-56.48-108.15-35.35-25.25-87.97-37.91-157.8-37.91v-73.02c85.2 0 151.89 17.22 200.02 51.61 50.72 36.24 79.65 89.72 86.7 160.33zM19817.76 914.17h-528.69l128.18-309.82 67.32 27.66-86.52 209.14h419.71z" class="fil1"/><path d="M19417.11 604.77c16.34-40.9 25.16-76.42 26.45-106.56v-.14c1.15-26.72-3.76-48.89-14.71-66.49l61.9-38.5c18.83 30.26 27.35 66.29 25.55 108.13-1.67 38.4-12.2 81.85-31.59 130.38z" class="fil1"/><path d="m19429.57 432.58-125.36-187.88 60.46-40.5 125.36 187.88z" class="fil1"/><path d="M19297.93 224.45c0-50.25-16.59-87.41-49.74-111.43-36.79-26.65-94.53-40-173.15-40V0c94.28 0 166.28 18.01 215.93 53.98 53.31 38.63 79.98 95.48 79.98 170.47z" class="fil1"/><path d="M19075.04 73.02h-4769.5V0h4769.5zM14305.54 73.02c-102.96 0-189.37 23.98-259.18 71.87-69.98 48-124.48 120.8-163.47 218.3l-67.6-27.1c44.46-111.17 107.79-195 189.99-251.38C14087.57 28.26 14187.66 0 14305.54 0z" class="fil1"/><path d="m13883.45 361.91-429.51 1199.14-2.71 5.7-35.75 62.63-63.32-35.94 33.96-59.49 428.59-1196.58z" class="fil1"/><path d="M13418.05 1623.68c-24.21 67.23-30.69 120.2-19.47 158.89 9.86 34 35.6 57.95 77.18 71.83l-23.1 69.02c-65.66-21.92-107.01-62.12-123.96-120.59-15.59-53.77-8.65-121.67 20.89-203.69z" class="fil1"/><path d="m13495.16 1869.8 116.47 187.92-61.9 38.22-116.47-187.92zM13611.63 2057.72c10.44 16.84 27.53 29.76 51.16 38.74 27.08 10.29 62.36 15.42 105.79 15.42v73.02c-52.04 0-95.89-6.74-131.47-20.26-39-14.82-68.17-37.72-87.38-68.7z" class="fil1"/><path d="M13768.58 2111.88h1304.89l-1386.91 3825.21-68.46-24.82 1351.44-3727.37h-1200.96z" class="fil1"/><path d="M13686.7 5936.52c-24.26 70.01-30.07 125.95-17.41 167.77 11.38 37.63 39.7 64.79 84.94 81.46l-25.1 68.46c-68.09-25.08-111.34-68.04-129.72-128.82-17.13-56.58-10.94-127.44 18.55-212.55z" class="fil1"/><path d="m13772.91 6201.3 107.4 179.01-62.46 37.36-107.4-179.01z" class="fil1"/><path d="M13879.31 6378.74c13.85 20.72 33.67 36.4 59.49 46.96 28.13 11.51 63.83 17.28 107.13 17.28V6516c-52.27 0-97.09-7.66-134.51-22.98-39.74-16.26-70.59-40.88-92.57-73.78zM14045.93 6442.98h2147.66V6516h-2147.66z" class="fil1"/><path d="M16193.59 6442.98c102.95 0 187.9-22.53 254.78-67.57h.14c66.46-44.75 116.28-112.66 149.36-203.65l68.46 24.82c-38.46 105.79-97.57 185.56-177.22 239.22-79.27 53.48-177.82 80.2-295.52 80.2zM16597.88 6171.76l1431.69-3928.35 68.46 24.82-1431.69 3928.35z" class="fil1"/><path d="M18029.29 2244.41c14.59-43.8 38.71-76.94 72.4-99.41 33.12-22.08 74.18-33.12 123.22-33.12v73.02c-34.6 0-62.17 6.85-82.72 20.56-19.98 13.32-34.61 33.92-43.88 61.77z" class="fil1"/><path d="M18081.7 1799.39h1395.95c155.2 0 259.62-80.6 313.27-241.6l134.24-366.86c53.6-137.24 2.89-205.8-152.14-205.8h-590.52c-149.38 0-196.96-80.53-143.21-241.69l161-393.73c53.75-137.05 0-205.76-161-205.76h-4769.6c-155.18 0-259.5 68.71-313.14 205.76l-438.47 1208.09-26.91 62.63c-47.89 119.49-2.98 178.97 134.26 178.97h1378.09c172.83 0 232.6 68.7 178.89 205.76l-1422.83 3910.56c-47.78 143.17 0 214.82 143.26 214.82h2147.76c166.86 0 277.15-71.65 330.9-214.82l1431.7-3928.43c41.72-125.31 131.23-187.89 268.51-187.89z" class="fil0"/><path d="M18081.7 1762.88h1395.95c69.4 0 126.9-17.58 172.44-52.71 46.42-35.79 81.87-90.42 106.32-163.79 32.38-115.63 94.75-251.3 134.81-368.71 21.92-56.14 24.21-95.96 6.87-119.43-18.04-24.4-59.74-36.6-125.07-36.6h-590.52c-88.51 0-148.22-26.13-179.16-78.38-29.44-49.72-28.93-120.15 1.44-211.23l161.66-395.54c11.63-29.94 17.5-55.53 17.5-76.77 0-16.27-3.57-29.51-10.71-39.65-7.4-10.53-19.3-19.02-35.65-25.43-24.09-9.45-56.87-14.18-98.29-14.18h-4769.6c-70.45 0-128.66 15.12-174.61 45.32-45.68 30-80.55 75.77-104.59 137.19L13551.6 1572.2l-26.91 62.63c-18.61 46.61-20.82 79.31-6.72 98.07 15.02 20 50.88 29.99 107.46 29.99h1378.09c56.26 0 102.35 7.03 138.19 21.08 30.94 12.12 54.64 29.59 71.03 52.35 16.82 23.36 25.25 51.06 25.25 82.99 0 29.25-7.22 62.3-21.64 99.11l-1422.54 3909.71c-10.42 31.43-15.64 58.63-15.64 81.56 0 20.22 4.21 36.3 12.6 48.2 8.3 11.76 21.49 20.67 39.5 26.67h.14c18.9 6.31 43.05 9.47 72.43 9.47h2147.76c76.35 0 139.04-15.92 188.03-47.72 48.4-31.42 84.63-79.11 108.67-142.99l1431.67-3928.44c23.48-69.81 60.76-122.61 111.83-158.34 51.12-35.77 114.78-53.65 190.91-53.65zm1395.95 73.02H18081.7c-61.14 0-110.92 13.42-149.27 40.25-38.17 26.7-66.43 67.56-84.73 122.54-213.05 760.88-1098.41 3262.28-1432.12 3929.71-29.71 79.13-75.49 138.8-137.32 178.94-61.28 39.78-137.19 59.7-227.67 59.7h-2147.76c-36.79 0-68.65-4.49-95.53-13.47-33.35-11.19-58.76-29.12-76.16-53.77-17.33-24.56-26-54.61-26-90.12 0-30.55 6.64-65.73 19.92-105.52 424.39-1303.49 978.77-2609.06 1423.4-3912.27 10.99-28.07 16.5-52.27 16.5-72.59 0-16.55-3.77-30.07-11.27-40.49-7.94-11.02-20.8-20.03-38.51-26.97-27.11-10.62-64.35-15.94-111.67-15.94h-1378.09c-80.64 0-135.89-19.76-165.64-59.37-30.6-40.71-31.44-97.27-2.42-169.66l27.19-63.48 438.05-1206.95c29.61-75.67 73.79-132.85 132.53-171.43 58.38-38.37 129.9-57.58 214.55-57.58h4769.6c50.37 0 91.99 6.44 124.81 19.32 30.03 11.77 52.96 28.92 68.75 51.39 16.07 22.84 24.11 50.05 24.11 81.57 0 30.19-7.58 64.62-22.73 103.25l-160.78 392.93c-23.03 69.5-25.51 119.61-7.35 150.28 16.75 28.29 55.54 42.44 116.4 42.44h590.52c89.7 0 150.89 22.09 183.55 66.26 33.34 45.12 34.19 108.23 2.53 189.31l-133.95 366.01c-29.25 87.12-72.76 153.03-130.56 197.59-58.85 45.4-131.17 68.11-216.94 68.11z" class="fil0"/><path d="M18081.7 1744.62h1395.95v109.54H18081.7zM19477.65 1744.62c65.31 0 119.1-16.3 161.31-48.86 43.52-33.55 76.93-85.28 100.19-155.09l103.54 34.24c-30.39 91.19-76.05 160.32-136.97 207.29-62.17 47.96-138.21 71.96-228.07 71.96z" class="fil1"/><path d="m19739.57 1539.18 134.24-366.86 102.7 37.22-134.24 366.86z" class="fil1"/><path d="M19874.24 1171.03c19.49-49.91 22.56-83.91 9.23-101.95-14.38-19.45-51.21-29.18-110.45-29.18V930.36c95.78 0 161.84 24.56 198.17 73.68 37.35 50.54 38.99 119.48 4.89 206.79zM19773.02 1039.89h-590.52V930.35h590.52zM19182.5 1039.89c-95.42 0-160.36-29.12-194.85-87.37-32.24-54.45-32.25-129.87-.13-226.21l103.54 34.24c-21.61 64.81-24.71 110.27-9.27 136.35 13.2 22.29 46.77 33.45 100.71 33.45z" class="fil1"/><path d="m18988.8 722.89 161-393.73 100.98 41.08-161 393.73z" class="fil1"/><path d="M19149.37 329.8c10.86-27.71 16.31-51.09 16.31-70.09 0-12.45-2.46-22.21-7.35-29.16-5.3-7.54-14.44-13.86-27.39-18.94-21.91-8.6-52.48-12.9-91.65-12.9V89.17c52.62 0 96.45 6.87 131.45 20.6 33.43 13.11 59.11 32.41 77.01 57.88 18.31 26.03 27.47 56.73 27.47 92.06 0 32.43-8.01 69.08-24.01 109.89zM19039.29 198.71h-4769.6V89.17h4769.6z" class="fil1"/><path d="M14269.69 198.71c-66.91 0-121.79 14.09-164.63 42.25-42.4 27.85-74.94 70.77-97.59 128.64l-101.84-39.8c31-79.2 77.52-139.25 139.53-179.98 61.49-40.41 136.34-60.65 224.53-60.65z" class="fil1"/><path d="m14007.89 368.31-439.54 1211.09-26.91 62.63-100.56-43.22 26.91-62.63 437.4-1205.09z" class="fil1"/><path d="M13541.87 1640.74c-16.33 40.75-19.44 67.83-9.36 81.24 11.34 15.1 42.34 22.64 92.91 22.64v109.54c-86.66 0-146.76-22.21-180.19-66.72-34.71-46.17-36.33-108.63-4.78-187.34zM13625.42 1744.62h1378.09v109.54h-1378.09z" class="fil1"/><path d="M15003.51 1744.62c58.51 0 106.8 7.46 144.83 22.36 34.25 13.42 60.66 33.01 79.16 58.7 19.15 26.6 28.74 57.83 28.74 93.62 0 31.5-7.65 66.76-22.92 105.75l-101.84-39.8c10.14-25.89 15.22-47.88 15.22-65.95 0-12.69-2.6-22.67-7.78-29.86-5.82-8.09-15.97-14.98-30.38-20.62-24.93-9.77-59.95-14.66-105.03-14.66z" class="fil1"/><path d="m15233.75 2023.76-1422.83 3910.56-102.7-37.22 1422.83-3910.56z" class="fil1"/><path d="M13811.34 5933.04c-9.94 29.8-14.92 55.35-14.92 76.64 0 16.4 3.09 28.99 9.24 37.71 6.02 8.52 16.14 15.18 30.31 19.9h.21c16.91 5.64 39.13 8.47 66.65 8.47v109.54c-38.65 0-72.43-4.83-101.31-14.47-37.16-12.49-65.6-32.67-85.28-60.54-19.57-27.73-29.36-61.28-29.36-100.61 0-32.4 6.97-69.51 20.92-111.3zM13902.83 6075.76h2147.76v109.54h-2147.76z" class="fil1"/><path d="M16050.59 6075.76c72.82 0 132.2-14.92 178.11-44.72 45.14-29.3 79.04-74.11 101.66-134.37l102.26 38.08c-31.13 82.91-79.28 145.55-144.44 187.85-64.37 41.78-143.57 62.7-237.59 62.7z" class="fil1"/><path d="m16330.14 5897.1 1431.7-3928.43 102.7 37.22-1431.69 3928.43z" class="fil1"/><path d="M17761.42 1970.16c24.68-74.14 64.35-130.33 118.95-168.53 54.33-38.01 121.46-57.01 201.33-57.01v109.54c-57.4 0-103.7 12.3-138.85 36.89-34.88 24.41-60.86 62.2-77.89 113.35z" class="fil1"/><path d="M13519.5 3848.76c-36.44-14.96-43.93-53.55-22.47-115.68l144.68-395.33c12.87-34.23 32.08-62.08 57.82-83.64 25.81-21.38 59.94-32.1 102.86-32.1H14924c62.19 0 91.13 23.58 86.89 70.72l41.72 61.14c12.87 17.12 13.98 42.81 3.15 77.06l-144.58 395.38c-30.1 77.04-82.44 115.66-157.49 115.66h-1115.23c-38.58 0-62.13-8.57-70.77-25.73z" class="fil0"/><path d="M13505.67 3882.42c-30.36-12.46-48.67-34.81-54.92-66.96-4.94-25.47-.97-56.91 11.91-94.22l68.74 23.68c-8.56 24.81-11.58 43.78-9.05 56.84 1.24 6.39 4.92 10.85 10.98 13.34z" class="fil1"/><path d="m13462.8 3720.67 144.68-395.33 68.46 24.82-144.68 395.33z" class="fil1"/><path d="M13607.62 3324.91c7.44-19.79 16.85-37.94 28.22-54.41 11.56-16.74 25-31.53 40.3-44.34l.14-.15c16.53-13.69 35.66-23.97 57.42-30.77 20.77-6.48 43.65-9.74 68.69-9.74v73.02c-17.87 0-33.54 2.12-47.01 6.32-12.47 3.89-23.35 9.71-32.6 17.37a148.7 148.7 0 0 0-27.04 29.65c-7.87 11.4-14.53 24.33-19.94 38.73zM13802.39 3185.49H14924v73.02h-1121.61zM14924 3185.49c39.63 0 70.08 8.65 91.32 25.95 24.46 19.92 35.05 48.07 31.79 84.42l-72.44-6.28c.96-10.77-.79-18.02-5.27-21.66-7.7-6.26-22.84-9.41-45.4-9.41z" class="fil1"/><path d="m15040.98 3272.18 41.72 61.15-60.18 41.08-41.72-61.14z" class="fil1"/><path d="M15081.7 3332.05c10.97 14.6 16.92 32.14 17.74 52.54.71 17.22-2.25 36.35-8.88 57.32l-69.6-21.96c4.18-13.21 6.08-24.06 5.74-32.5-.21-5.3-1.29-9.24-3.18-11.76z" class="fil1"/><path d="m15089.99 3443.34-144.58 395.38-68.46-24.82 144.58-395.38z" class="fil1"/><path d="M14945.12 3839.57c-17.6 45.06-42.36 79.37-74.29 102.84-32.68 24.03-71.71 36.07-117.14 36.07v-73.02c29.62 0 54.3-7.28 74.06-21.81 20.5-15.07 37-38.63 49.49-70.6zM14753.69 3978.48h-1115.23v-73.02h1115.23zM13638.46 3978.48c-23.39 0-43.07-2.91-59.02-8.71-20.87-7.59-35.64-19.98-44.27-37.13l65.04-32.8 4.05 1.47c7.6 2.76 19.01 4.15 34.2 4.15z" class="fil1"/><path d="m13538.03 3937.35-48.19-67.48 59.32-42.22 48.19 67.48z" class="fil1"/><path d="M14702.19 3816.63c55.78 0 95.36-28.96 118.97-86.8l144.67-395.33c17.21-49.2-1.11-73.9-54.65-73.9h-1121.72c-29.99 0-53.5 7.02-70.71 20.89-17.12 13.98-29.94 32.66-38.47 56.26l-144.66 395.29c-19.27 55.79-2.16 83.59 51.44 83.59z" class="fil0"/><path d="M14702.19 3780.12c20.13 0 36.85-4.87 50.16-14.58 14.1-10.3 25.79-26.79 35.01-49.4l67.6 27.38c-14.36 35.21-34.31 62.15-59.83 80.78-26.32 19.22-57.3 28.84-92.94 28.84z" class="fil1"/><path d="m14786.93 3717.42 144.67-395.33 68.46 24.82-144.67 395.33z" class="fil1"/><path d="M14931.46 3322.52c2.74-7.84 4.12-14.35 4.12-19.48l.09-2.29-2.6-1.04c-4.94-1.73-12.25-2.6-21.89-2.6v-73.02c17.45 0 32.75 2.3 45.85 6.88 16.36 5.72 29.03 14.83 37.96 27.28 9.05 12.63 13.61 27.58 13.61 44.79 0 12.94-2.81 27.43-8.4 43.44zM14911.18 3297.11h-1121.72v-73.03h1121.72zM13789.46 3297.11c-11.68 0-21.64 1.23-29.88 3.67-7.1 2.1-13.12 5.14-18.01 9.09-5.69 4.65-10.77 10.22-15.19 16.68-4.78 6.99-8.75 14.82-11.87 23.47l-68.46-24.54c5.38-14.92 12.12-28.27 20.15-40.01 8.35-12.2 18.23-22.95 29.59-32.22l.14-.14c12.3-9.92 26.68-17.35 43.11-22.21 15.3-4.53 32.12-6.81 50.42-6.81z" class="fil1"/><path d="m13714.51 3350.16-144.66 395.29-68.46-24.82 144.66-395.29z" class="fil1"/><path d="M13569.99 3744.88c-5.85 16.95-7.48 27.55-4.89 31.77l-.1.06c1.51 2.26 8.88 3.41 22.06 3.41v73.02c-40.28 0-68.29-12.75-84-38.27h-.14c-14.53-23.62-15.08-54.84-1.67-93.67z" class="fil1"/><path d="M13587.06 3780.12h1115.13v73.02h-1115.13z" class="fil1"/><path d="M7846.31 1338.44h323.99c45.59 0 85.06 14.61 118.3 43.72 33.19 29.02 49.88 66.4 49.88 112.04l74.63 118.33c25.02 41.62 29.05 89.51 12.57 143.36L7273.07 4920.7c-49.73 141.17-145.41 211.82-286.57 211.82H5466.34c-66.53 0-110.07-16.63-130.9-49.71l-87.21-130.96c-70.55-29.05-87.19-97.57-49.81-205.44l1127.69-3090.14h-323.99c-70.62 0-114.31 24.81-130.86 74.77L4712.47 4920.7c-37.27 112.17-105.88 176.56-205.44 193.19l-6.38-6.27c-41.4 16.48-72.61 24.9-93.42 24.9H2893.39c-78.97 0-124.72-16.63-137.17-49.71l-93.38-130.96c-66.42-29.05-81.05-97.57-43.57-205.44l1127.58-3090.14h-323.96c-66.53 0-108 24.81-124.49 74.77L2139.5 4920.7c-49.83 137.09-147.57 205.65-292.87 205.65H345.24c-78.99 0-130.78-18.73-155.69-56.1l-81.05-130.8c-74.75-33.35-91.45-101.76-49.83-205.65L1466.65 871.17c49.87-153.51 155.7-230.46 317.79-230.46H7702.9c116.24 0 170.31 45.77 162.1 137.01l87.2 124.55h-6.18c0-3.97-2.25-6.18-6.28-6.18l12.46 6.18c24.92 37.6 24.92 89.5 0 155.71l-105.89 280.45z" class="fil0"/><path d="M7846.31 1301.93h323.99v73.02h-323.99zM8170.3 1301.93c27.04 0 52.5 4.42 76.31 13.22 23.86 8.81 45.86 22.04 65.95 39.63 20.61 18.03 36.2 38.84 46.67 62.37 10.49 23.57 15.76 49.27 15.76 77.05h-73.02c0-17.83-3.08-33.64-9.2-47.39-6.15-13.83-15.56-26.27-28.13-37.27-13.15-11.52-27.55-20.17-43.13-25.93-15.59-5.76-32.68-8.66-51.21-8.66z" class="fil1"/><path d="m8369.29 1474.8 74.63 118.33-61.62 38.8-74.63-118.33z" class="fil1"/><path d="M8444.34 1593.85c15.43 25.67 24.41 53.21 26.98 82.49 2.47 28.39-1.16 58.46-10.84 90.1l-69.6-21.1c6.82-22.29 9.4-43.22 7.7-62.72-1.62-18.39-7.17-35.56-16.7-51.41z" class="fil1"/><path d="M8459.91 1768.3 7307.3 4933.11l-68.46-24.82 1152.61-3164.81z" class="fil1"/><path d="M7307.44 4932.82c-27.31 77.53-67.9 136.21-121.66 175.95-54.34 40.16-120.8 60.26-199.28 60.26v-73.02c62.69 0 114.69-15.25 155.92-45.72 41.76-30.87 73.89-78.13 96.28-141.71zM6986.5 5169.03H5466.35v-73.02H6986.5zM5466.35 5169.03c-37.58 0-69.39-4.98-95.43-14.87-29.44-11.19-51.55-28.54-66.28-51.95l61.62-38.8c6.07 9.65 16.2 17.2 30.34 22.57 17.56 6.67 40.8 10.03 69.75 10.03z" class="fil1"/><path d="m5305.06 5102.92-87.21-130.96 60.76-40.22 87.21 130.96z" class="fil1"/><path d="M5234.4 4985.51c-46.72-19.24-75.71-52.01-86.92-98.27-9.96-41.11-4.45-92.01 16.57-152.67l68.74 23.68c-16.35 47.19-21.2 84.5-14.57 111.87 5.38 22.22 20.02 38.26 43.84 48.07z" class="fil1"/><path d="m5164.19 4734 1109.84-3041.22h-271.91v-73.02h376.08L5232.65 4758.82z" class="fil1"/><path d="M6002.12 1692.78c-29 0-51.61 4.6-67.74 13.8-13.61 7.76-23.12 19.73-28.46 35.87l-69.32-22.82c11.19-33.8 31.83-59.25 61.84-76.37 27.48-15.68 62.07-23.5 103.68-23.5z" class="fil1"/><path d="M5905.49 1743.45 4746.7 4933.11l-68.46-24.82 1158.79-3189.66z" class="fil1"/><path d="M4746.98 4932.11c-20.6 62-50.25 111.19-88.87 147.5-39.63 37.27-88.04 60.69-145.09 70.22l-11.98-71.88c42.53-7.1 78.28-24.25 107.15-51.4 29.84-28.06 53.13-67.17 69.77-117.26z" class="fil1"/><path d="m4481.5 5139.85-6.38-6.27 51.06-51.92 6.38 6.27z" class="fil1"/><path d="M4514.06 5141.42c-22.53 8.96-42.03 15.68-58.43 20.06-18.75 5.02-34.91 7.55-48.4 7.55v-73.02c7.3 0 17.19-1.68 29.58-4.99 14.74-3.93 31.57-9.69 50.43-17.2zM4407.23 5169.03H2893.39v-73.02h1513.84zM2893.39 5169.03c-43.55 0-78.87-4.92-105.91-14.72-33.39-12.1-55.19-31.67-65.35-58.66l68.18-25.68c2.29 6.1 9.64 11.41 21.99 15.88 18.66 6.76 45.71 10.16 81.09 10.16z" class="fil1"/><path d="m2726.56 5103.92-93.38-130.96 59.32-42.22 93.38 130.96z" class="fil1"/><path d="M2648.29 4985.22c-44.69-19.54-72.01-52.57-81.86-99.01-8.64-40.79-2.5-91.41 18.47-151.78l68.74 23.96c-16.48 47.43-21.77 85.03-15.91 112.7 4.68 22.06 17.92 37.89 39.66 47.39z" class="fil1"/><path d="m2585.04 4734 1109.73-3041.22h-271.88v-73.02h376.05L2653.5 4758.82z" class="fil1"/><path d="M3422.89 1692.78c-26.68 0-47.47 4.45-62.33 13.37-12.89 7.73-22.08 19.85-27.5 36.3l-69.32-22.82c11.04-33.47 30.87-58.79 59.46-75.94 26.61-15.97 59.84-23.93 99.69-23.93z" class="fil1"/><path d="m3332.63 1743.45-1158.9 3189.66-68.46-24.82 1158.89-3189.66z" class="fil1"/><path d="M2173.73 4933.11c-27.53 75.76-68.85 132.98-123.88 171.62-55.18 38.74-122.96 58.13-203.22 58.13v-73.02c65.04 0 118.84-14.92 161.3-44.73 42.6-29.91 75.07-75.54 97.34-136.82z" class="fil1"/><path d="M1846.63 5162.86H345.24v-73.02h1501.39zM345.24 5162.86c-43.46 0-80.26-5.45-110.4-16.32-33.56-12.1-58.79-30.83-75.67-56.18l60.76-40.22c8.01 12.03 21.18 21.35 39.45 27.94q32.58 11.76 85.86 11.76z" class="fil1"/><path d="m158.6 5089.36-81.05-130.8 61.9-38.22 81.05 130.8z" class="fil1"/><path d="M93.67 4972.68c-48.24-21.51-77.97-55.18-89.09-101.04-10.15-41.8-3.4-92.25 20.29-151.39l67.6 27.1c-17.92 44.75-23.63 80.47-17.15 107.17 5.49 22.65 21.52 39.89 48.01 51.7z" class="fil1"/><path d="M24.44 4721.39 1432.42 858.76l68.46 24.82L92.9 4746.21z" class="fil1"/><path d="M1431.99 859.9c27.37-84.27 70.73-147.98 130.08-191.05 59.36-43.07 133.48-64.65 222.37-64.65v73.02c-73.2 0-133.06 16.91-179.59 50.67-46.53 33.77-81.06 85.32-103.54 154.55zM1784.44 604.2H7702.9v73.02H1784.44zM7702.9 604.2q17.67 0 36.72 1.71c51.41 4.62 90.89 19.53 118.38 44.64v.14c29.54 26.99 44.32 63.54 44.32 109.58 0 5.56-.37 12.44-1.1 20.59l-72.44-6.28c.34-3.85.52-8.64.52-14.31 0-24.85-6.78-43.51-20.29-55.9l-.07.08c-15.6-14.25-40.83-22.97-75.6-26.1-8.38-.75-18.55-1.13-30.44-1.13z" class="fil1"/><path d="m7894.81 756.9 127.34 181.88h-76.13v-32.19l-23.63 16.5-87.2-124.55z" class="fil1"/><path d="M7909.51 902.27c0-1.75.73-1.47 1.8 0zm1.8 0c2.72 3.72 7.7 15.04 8.78 19.86l-.14.13.17.03c4.81 1.08 16 5.96 19.62 8.6v-28.47l.15-.15zm8.78 19.86.03.16c.4 1.96.12 2.72-1.26 1.36l-.14-.15c-1.37-1.35-.63-1.63 1.23-1.24zm49.82-50.39c8.28 8.1 12.62 18.47 12.62 30.53h-42.64l-.15.15v-42.84c11.83 0 22.05 4.18 30.17 12.16m-30.17 59.15c1.4 1.02 1.68 1.71 0 1.71z" class="fil1"/><path d="m7955.86 863.43 12.46 6.18-32.24 65.32-12.46-6.18z" class="fil1"/><path d="M7982.58 882.16c16.54 24.96 24.82 54.05 24.82 87.24 0 30.21-7.04 64.03-21.11 101.42l-68.18-25.68c10.84-28.81 16.27-54.07 16.27-75.74 0-18.71-4.19-34.39-12.56-47.02z" class="fil1"/><path d="m7986.29 1070.82-105.89 280.46-68.18-25.68 105.89-280.46z" class="fil1"/><path d="M8251.12 1568.99c16.59-45.61 13.56-83.04-9.32-112.14-22.87-28.97-55-43.6-96.51-43.6h-411.2c-103.89 0-137.08-53.86-99.65-161.97l143.3-380.1c33.2-103.63 0-155.79-99.65-155.79H1759.42c-112.03 0-184.84 52.16-218 155.79L133.45 4733.81c-37.41 99.75 0 149.59 112.11 149.59h1501.51c107.9 0 180.61-49.84 218-149.59l1158.69-3189.73c29.03-87.22 95.65-130.82 199.45-130.82h429.93c103.68 0 137.06 52 99.68 155.74l-1158.9 3177.42c-33.25 95.47 0 143.15 99.79 143.15h1513.85c33.24 0 62.29-6.17 87.21-18.52 70.56-12.68 118.55-58.27 143.36-137.24l1158.79-3189.73c28.94-87.22 97.51-130.82 205.53-130.82h417.38c112.11 0 149.49 52 112.11 155.74L5273.26 4746.42c-33.35 95.47-2.15 143.15 93.42 143.15h1520.11c103.8 0 174.46-51.81 211.82-155.76L8251.12 1569z" class="fil4"/><path d="M8216.89 1556.58c6.44-17.72 9.12-33.38 8-46.92-.95-11.41-4.87-21.52-11.76-30.28l.09-.07c-7.7-9.74-16.96-17.06-27.73-21.93-11.21-5.06-24.63-7.62-40.2-7.62v-73.02c25.86 0 49.25 4.75 70.14 14.18 21.39 9.66 39.71 24.16 54.89 43.4h.15c15.95 20.29 25 43.44 27.16 69.36 1.97 23.87-2.13 49.8-12.28 77.72zM8145.29 1449.76h-411.2v-73.02h411.2zM7734.09 1449.76c-65.53 0-110.18-19.28-133.91-57.84l.1-.06c-22.6-36.77-22.67-87.59-.21-152.42l68.74 23.68c-14.96 43.2-17.16 73.41-6.59 90.58h.14c9.45 15.36 33.37 23.04 71.73 23.04z" class="fil1"/><path d="m7600.34 1238.44 143.31-380.11 68.18 25.68-143.3 380.11z" class="fil1"/><path d="M7743.08 860.05c7.06-22.05 10.6-41.04 10.6-56.94 0-13.11-2.48-23.2-7.42-30.23-4.75-6.75-12.65-11.91-23.68-15.44-11.54-3.69-26.38-5.55-44.49-5.55v-73.02c25.24 0 47.49 3.09 66.73 9.25 26.61 8.52 46.98 22.82 61.06 42.84 13.87 19.75 20.82 43.81 20.82 72.15 0 23.03-4.77 49.42-14.3 79.18zM7678.09 751.89H1759.42v-73.02h5918.67zM1759.42 751.89c-48.3 0-87.48 10.75-117.42 32.15-29.79 21.29-51.79 54.07-65.92 98.25l-69.32-22.24c19.03-59.48 50.06-104.63 93.02-135.33 42.71-30.52 95.97-45.85 159.64-45.85z" class="fil1"/><path d="M1575.65 883.58 167.68 4746.21l-68.46-24.82L1507.19 858.76z" class="fil1"/><path d="M167.54 4746.49c-7.73 20.62-11.61 38.23-11.61 52.78 0 10.3 2.08 18.4 6.22 24.27 4.31 6.11 11.54 11.08 21.64 14.86 15.06 5.65 35.66 8.48 61.77 8.48v73.02c-34.43 0-63.5-4.45-87.15-13.32-24.34-9.12-42.99-22.85-55.88-41.12-13.07-18.52-19.62-40.6-19.62-66.19 0-22.87 5.5-48.93 16.45-78.16z" class="fil1"/><path d="M245.56 4846.88h1501.51v73.02H245.56zM1747.07 4846.88c46.5 0 84.82-10.33 114.92-30.98 30.02-20.6 53.03-52.21 68.99-94.79l68.18 25.38c-21.41 57.13-53.47 100.34-96.09 129.59-42.56 29.21-94.59 43.82-156 43.82z" class="fil1"/><path d="m1930.84 4721.39 1158.68-3189.73 68.46 24.82L1999.3 4746.21z" class="fil1"/><path d="M3089.24 1532.66c17.22-51.74 45.98-90.83 86.19-117.2 39.34-25.81 88.64-38.72 147.77-38.72v73.02c-44.69 0-80.67 8.92-107.83 26.74-26.26 17.22-45.32 43.57-57.11 78.98zM3323.21 1376.74h429.93v73.02h-429.93zM3753.14 1376.74c29 0 54.05 3.8 75.1 11.38 24.61 8.86 43.44 22.76 56.43 41.66l.14.14c12.88 18.76 19.34 41.32 19.34 67.65 0 24.15-5.71 52.07-17.1 83.69l-68.46-24.54c8.35-23.19 12.54-42.92 12.54-59.15 0-11.4-2.17-20.27-6.5-26.57-4.22-6.11-11.22-10.93-20.93-14.42-12.61-4.54-29.48-6.82-50.56-6.82z" class="fil1"/><path d="m3887.05 1581.4-1158.9 3177.42-68.46-24.82 1158.9-3177.42z" class="fil1"/><path d="M2728.29 4758.39c-12.53 35.97-14 60.84-4.42 74.58l-.09.06c9.36 13.34 32.68 20.02 69.93 20.02v73.02c-62.48 0-105.69-17.16-129.6-51.46h-.14c-23.67-33.96-25.14-80.69-4.42-140.18zM2793.71 4853.05h1513.85v73.02H2793.71zM4307.56 4853.05c14.28 0 27.34-1.26 39.16-3.77 11.59-2.45 22.24-6.1 31.93-10.9l9.7-3.14c28.09-5.04 51.51-16.48 70.13-34.31 19.36-18.53 34.34-44.53 44.85-77.97l69.6 21.68c-14.26 45.38-35.63 81.64-63.97 108.77-28.02 26.83-62.25 44.3-102.52 52.43-13.94 6.47-28.81 11.4-44.6 14.74-17.22 3.66-35.32 5.49-54.28 5.49z" class="fil1"/><path d="m4503.9 4721.39 1158.79-3189.73 68.46 24.82-1158.79 3189.73z" class="fil1"/><path d="M5662.41 1532.66c17.19-51.81 46.56-90.94 88.06-117.36 40.39-25.7 91.07-38.56 151.98-38.56v73.02c-47.12 0-84.77 8.96-112.9 26.86-26.99 17.18-46.38 43.48-58.12 78.86zM5902.45 1376.74h417.38v73.02h-417.38zM6319.83 1376.74c32.66 0 60.56 4.18 83.68 12.5 25.54 9.2 45.08 23.37 58.58 42.49 13.58 19.21 20.38 42.28 20.38 69.16 0 23.41-5.43 50.21-16.3 80.37l-68.46-24.54c7.82-21.72 11.74-40.34 11.74-55.83 0-11.57-2.33-20.66-6.98-27.24-4.72-6.68-12.57-12.02-23.5-15.95-14.68-5.28-34.41-7.94-59.14-7.94z" class="fil1"/><path d="M6466.17 1581.4 5307.49 4758.82l-68.46-24.82 1158.68-3177.42z" class="fil1"/><path d="M5307.63 4758.39c-7.19 20.57-10.79 38.08-10.79 52.46 0 10.23 1.91 18.1 5.72 23.57 3.72 5.36 10.02 9.6 18.84 12.68 11.34 3.96 26.46 5.95 45.28 5.95v73.02c-26.63 0-49.73-3.42-69.24-10.23-23.89-8.35-42.16-21.61-54.78-39.78-12.56-18.03-18.84-39.79-18.84-65.21 0-22.19 5.03-47.68 15.07-76.42zM5366.68 4853.05h1520.11v73.02H5366.68zM6886.79 4853.05c44.01 0 80.45-10.59 109.28-31.77 29.38-21.58 52.17-54.84 68.31-99.75l68.46 24.54c-21.21 59.03-52.46 103.69-93.69 133.97-41.78 30.7-92.58 46.03-152.36 46.03z" class="fil1"/><path d="m7064.38 4721.39 1152.51-3164.81 68.46 24.82-1152.51 3164.81zM17414.14 5122.77c-41.55-18.08-66.26-49.27-74.07-93.51-6.68-37.8.37-84.77 21.1-140.84l68.46 25.1c-16.19 43.79-22.09 78.2-17.68 103.18 3.27 18.56 13.72 31.68 31.29 39.33zM16961.19 6529.63c-14.24 25.64-1.69 38.32 37.78 38.32h573.61c39.2 0 65.23-11.73 77.78-35.28l341.32-608.74h-691.37zM19240.49 5498.3c12.56-25.64-1.52-38.42-42.6-38.42h-1265.31c-42.34 0-69.87 12.78-82.44 38.42l-54.27 93.7c-14.19 26.58-40.93 39.88-80.29 39.88h-155.82c-14.19 0-29.88 3.55-47.11 10.66-17.43 7.28-29.16 16.5-35.43 27.75l-97.62 174.3h691.48l97.72-174.3c14.08-25.59 42.51-38.41 84.94-38.41h158.18c37.74 0 49.51 12.82 35.44 38.41l-97.72 174.3h696.55l194.29-346.29zM18270.33 5923.93l-51.12 91.24c-12.56 24.65.73 36.9 40.19 36.9h568.79c45.64 0 74.79-12.25 87.36-36.9l51.24-91.24zM20963.58 5495.22c14.17-23.51 1.52-35.34-37.85-35.34h-1267.45c-40.93 0-68.56 11.83-82.65 35.34l-54.33 96.67c-14.17 26.69-.83 39.99 40.1 39.99h573.61c42.49 0 56.68 12.24 42.49 36.8l-52.02 95.3c-14.08 24.49-42.45 36.75-84.94 36.75h-847.32c-41.03 0-69.29 12.35-84.94 36.85l-3.87 7.01h1664.35zM19025.01 5923.93l-338.39 605.7c-14.18 25.64-1.52 38.32 37.8 38.32h1267.49c42.56 0 70.82-12.68 84.95-38.32l54.28-96.78c14.18-26.63 39.31-39.94 75.48-39.94h158.22c41.03 0 68.47-11.72 82.65-35.28l241.98-433.7zm881.95 165.04-148.66 268.66c-14.24 23.56-42.61 35.28-85.05 35.28h-155.72c-42.6 0-56.79-11.72-42.6-35.28l148.8-268.66c15.71-24.59 43.86-36.9 85.07-36.9h155.65c44.12 0 58.2 12.31 42.51 36.9M21615.07 5671.76c17.32-26.54 44.85-39.88 82.54-39.88h854.47c39.3 0 66.16-12.82 80.29-38.42l54.27-98.3c14.19-23.45 1.52-35.28-37.72-35.28h-1267.56c-40.99 0-68.48 11.83-82.71 35.28l-54.16 96.73c-14.2 26.69-41.83 39.99-82.65 39.99h-151.17c-42.44 0-70.86 12.24-84.95 36.8l-98.24 175.91h691.37l96.21-172.83zM22090.38 6392.91h-854.53c-39.26 0-51.82-11.78-37.74-35.28l241.4-433.7h-691.32l-338.49 605.7c-12.56 24.51 1.61 36.75 42.45 36.75h1541.5c39.32 0 66.06-12.24 80.15-36.75l54.33-98.34c14.17-25.5 1.62-38.38-37.74-38.38zM23437.29 5492.12c12.55-22.4-1.63-33.7-42.51-33.7h-299.76c-39.36 0-65.27 11.3-77.94 33.7l-54.27 98.3c-17.44 27.63-45.59 41.46-84.96 41.46h-148.75c-40.93 0-66.83 11.26-77.88 33.76l-100.12 178.95h689.17zM22471.78 5923.93l-338.91 605.7c-14.07 24.51-1.61 36.75 37.7 36.75h571.3c39.25 0 65.2-10.68 77.83-32.19l341.16-610.26zM22871.67 6529.63c-14.19 24.51 0 36.75 42.5 36.75h568.79c40.89 0 68.52-12.24 82.59-36.75l338.24-605.7h-692.74zM24183.14 5923.93l-341.31 608.68c-12.67 23.67 0 35.34 37.72 35.34h573.61c42.45 0 70.73-12.68 85.01-38.32l339.07-605.7zM25054.15 5670.29c6.28-11.25 5.08-20.51-3.57-27.64-8.67-7.22-21.65-10.77-38.88-10.77h-155.82c-39.36 0-51.93-13.3-37.84-39.99l54.28-93.59c12.61-25.64 0-38.42-37.69-38.42h-1267.56c-42.49 0-70.02 12.78-82.59 38.42l-194.03 346.29h692.79l100.86-180.53c10.83-21.41 36.07-32.18 75.42-32.18h162.94c39.2 0 51.92 12.76 37.68 38.41l-97.7 174.3h694.19l97.51-174.3zM24691.63 6356.17c-6.38 11.15-5.65 20.21 2.25 26.74 7.81 6.7 20.47 10.1 37.85 10.1h155.66c39.48 0 51.92 12.78 37.74 38.32l-54.17 96.73c-14.13 25.65-1.63 38.32 37.8 38.32h1269.85c37.68 0 63.69-12.67 77.88-38.32l247.88-440.61c14.13-24.65.79-36.95-40.2-36.95h-571.19c-36.27 0-61.4 12.3-75.52 36.95l-151.11 268.72c-14.19 23.5-40.89 35.28-80.3 35.28h-160.38c-42.44 0-56.79-11.78-42.44-35.28l241.5-432.24h-691.69l-241.4 432.24zM26831.61 5459.88h-1546.12c-37.84 0-63.74 11.83-77.92 35.34l-195.14 349.37h691.69l98.3-175.91c14.17-24.56 41.72-36.8 82.54-36.8h849.76c39.36 0 66.1-13.3 80.29-39.99l54.27-96.67c14.24-23.51 1.52-35.34-37.68-35.34z" class="fil1"/></g></svg>